<?xml version="1.0" encoding="UTF-8"?>
<svg version="1.1" xmlns="http://www.w3.org/2000/svg" width="548" height="455">
<path d="M0 0 C1.10894599 -0.00226556 2.21789198 -0.00453111 3.3604424 -0.00686532 C7.07195025 -0.01318943 10.78342144 -0.01237697 14.49493408 -0.0115509 C17.15788916 -0.01454339 19.82084138 -0.01791792 22.48379517 -0.02172852 C28.96428026 -0.03002239 35.44475625 -0.03278279 41.92524621 -0.03334089 C47.19529536 -0.03381668 52.46534151 -0.03587457 57.73538971 -0.03904152 C72.69011962 -0.04784488 87.64484237 -0.05246143 102.59957489 -0.05171105 C103.40518991 -0.05167109 104.21080493 -0.05163113 105.04083252 -0.05158997 C105.84743581 -0.05154909 106.6540391 -0.0515082 107.48508492 -0.05146609 C120.55253756 -0.05105977 133.61996137 -0.06062644 146.68740568 -0.07472833 C160.11787983 -0.08910715 173.54833994 -0.09599768 186.97882199 -0.09513456 C194.51379442 -0.09480309 202.04873661 -0.09752792 209.58370209 -0.10831261 C215.99992391 -0.11743747 222.41610181 -0.11957661 228.83232734 -0.11280318 C232.10255437 -0.10954789 235.37268012 -0.11054155 238.64290237 -0.11815643 C242.19674261 -0.12589416 245.75036358 -0.12121957 249.30419922 -0.11352539 C250.32572106 -0.11866895 251.3472429 -0.12381252 252.39971995 -0.12911195 C261.21035783 -0.08712701 269.84051407 0.85583548 277.96856689 4.44621277 C278.95856689 4.88191589 279.94856689 5.31761902 280.96856689 5.76652527 C292.18800522 10.98833832 292.18800522 10.98833832 296.90606689 14.13371277 C296.90606689 14.79371277 296.90606689 15.45371277 296.90606689 16.13371277 C297.89606689 16.46371277 298.88606689 16.79371277 299.90606689 17.13371277 C299.90606689 17.79371277 299.90606689 18.45371277 299.90606689 19.13371277 C300.64083252 19.36316589 301.37559814 19.59261902 302.13262939 19.82902527 C311.01996574 24.00982856 318.40813031 37.26518267 321.67266846 46.24162292 C324.3889261 54.50670465 327.04009723 62.90276162 327.01959229 71.65837097 C327.01951675 72.73911392 327.01944122 73.81985687 327.0193634 74.93334961 C327.01420212 76.08872726 327.00904083 77.24410492 327.00372314 78.43449402 C327.00160072 80.22176155 327.00160072 80.22176155 326.99943542 82.0451355 C326.99384417 85.84552027 326.98129321 89.64584584 326.96856689 93.44621277 C326.96355077 96.02498796 326.95898806 98.60376407 326.95489502 101.18254089 C326.9438776 107.49961834 326.92714811 113.81666132 326.90606689 120.13371277 C323.90606689 120.13371277 323.90606689 120.13371277 321.90606689 119.13371277 C321.90606689 118.47371277 321.90606689 117.81371277 321.90606689 117.13371277 C321.34274658 116.85527527 320.77942627 116.57683777 320.19903564 116.28996277 C318.6701776 115.51902243 317.15167258 114.72719977 315.64434814 113.91496277 C314.84384033 113.49215027 314.04333252 113.06933777 313.21856689 112.63371277 C312.43094971 112.21090027 311.64333252 111.78808777 310.83184814 111.35246277 C306.95540302 109.73770859 303.01615997 108.9400771 298.90606689 108.13371277 C298.88624756 107.07047791 298.86642822 106.00724304 298.8460083 104.91178894 C298.76918206 100.91759464 298.68059251 96.92372868 298.58868408 92.92985535 C298.55070908 91.21052088 298.51580512 89.49111543 298.48419189 87.77165222 C298.15990712 70.34641254 296.85839301 56.75152695 284.90606689 43.13371277 C283.91606689 42.47371277 282.92606689 41.81371277 281.90606689 41.13371277 C281.90606689 40.47371277 281.90606689 39.81371277 281.90606689 39.13371277 C281.36981689 38.88621277 280.83356689 38.63871277 280.28106689 38.38371277 C277.90606689 37.13371277 277.90606689 37.13371277 275.18101501 35.19419098 C262.1412765 26.99006191 245.0402583 28.56328422 230.29278564 28.61613464 C227.7351339 28.61070528 225.17748529 28.60357807 222.61984253 28.59489441 C216.42959753 28.57863277 210.23960752 28.5808959 204.04935956 28.59254497 C199.01267743 28.60162598 193.97604956 28.60278328 188.93936157 28.59844971 C188.21900433 28.59783677 187.49864709 28.59722384 186.75646085 28.59659234 C185.29248308 28.59531327 183.82850532 28.59401641 182.36452758 28.59270197 C168.67805488 28.58133076 154.99168983 28.5943553 141.30523479 28.61590344 C129.5943255 28.63377129 117.88357489 28.6306662 106.17266846 28.61222839 C92.53088304 28.59076025 78.88919166 28.58242907 65.2473917 28.59467745 C63.78918522 28.59595147 62.33097873 28.59720896 60.87277222 28.59844971 C60.15554652 28.59906681 59.43832083 28.59968391 58.69936103 28.60031971 C53.67622927 28.60375484 48.65315781 28.59798422 43.6300354 28.58853149 C36.85332943 28.57605755 30.0769666 28.58510041 23.3002739 28.60810852 C20.82364774 28.61336589 18.34699624 28.61193329 15.8703804 28.60305786 C-7.94646135 27.91251878 -7.94646135 27.91251878 -28.71112061 37.96183777 C-30.09393311 39.13371277 -30.09393311 39.13371277 -32.09393311 39.13371277 C-32.42393311 40.12371277 -32.75393311 41.11371277 -33.09393311 42.13371277 C-34.27092489 43.27707622 -35.44843854 44.41990931 -36.62908936 45.55949402 C-46.53707802 56.20727917 -48.24954584 67.84592583 -48.22764587 81.80331421 C-48.22991143 82.86663556 -48.23217699 83.92995691 -48.2345112 85.02550012 C-48.24083292 88.58265957 -48.240023 92.13978075 -48.23919678 95.69694519 C-48.24218943 98.24990386 -48.24559221 100.80286208 -48.24937439 103.3558197 C-48.25729102 109.56793337 -48.26042862 115.78003305 -48.26098677 121.99215128 C-48.26146266 127.04480055 -48.26352106 132.0974467 -48.26668739 137.15009499 C-48.2754908 151.49104649 -48.28010735 165.83199052 -48.27935692 180.17294475 C-48.27929698 181.33168776 -48.27929698 181.33168776 -48.27923584 182.51383972 C-48.27919496 183.28728394 -48.27915408 184.06072816 -48.27911196 184.85761008 C-48.27870575 197.38443274 -48.28826971 209.91122531 -48.30237421 222.43803927 C-48.31675898 235.31594228 -48.32364321 248.19383063 -48.32278043 261.07174188 C-48.32244915 268.29543187 -48.32516591 275.51909032 -48.33595848 282.74277306 C-48.34604883 289.53977131 -48.34570668 296.33669211 -48.33844185 303.13369751 C-48.33739812 305.6232901 -48.33974626 308.11288686 -48.34580231 310.60247231 C-48.35355531 314.0114567 -48.34885545 317.42021339 -48.34117126 320.82919312 C-48.34631483 321.80500169 -48.35145839 322.78081025 -48.35675782 323.78618878 C-48.31430491 332.35969363 -48.16503231 342.20488752 -43.21893311 349.50871277 C-42.41262451 350.72107605 -42.41262451 350.72107605 -41.59002686 351.95793152 C-40.84946045 353.03494324 -40.84946045 353.03494324 -40.09393311 354.13371277 C-39.49580811 355.18558777 -38.89768311 356.23746277 -38.28143311 357.32121277 C-35.58836478 360.78372918 -32.47328147 363.07495362 -28.92205811 365.61808777 C-28.31877686 366.11824402 -27.71549561 366.61840027 -27.09393311 367.13371277 C-27.09393311 367.79371277 -27.09393311 368.45371277 -27.09393311 369.13371277 C-26.56799561 369.25746277 -26.04205811 369.38121277 -25.50018311 369.50871277 C-21.35131009 370.58634212 -17.2789887 371.9200257 -13.18768311 373.19621277 C-9.16692683 374.41462376 -5.7553311 375.25847713 -1.54071712 375.26514053 C-0.62688698 375.26898168 0.28694317 375.27282282 1.22846514 375.27678037 C2.7288758 375.27548064 2.7288758 375.27548064 4.25959778 375.27415466 C5.85791857 375.27861135 5.85791857 375.27861135 7.48852867 375.28315806 C11.07115672 375.2918531 14.65375138 375.29335401 18.23638916 375.29484558 C20.80038016 375.29947326 23.36437048 375.30449785 25.92835999 375.30989075 C32.90384612 375.32302333 39.87932124 375.3294984 46.85481763 375.33390141 C51.21285896 375.33666546 55.57089808 375.34090319 59.92893791 375.34540558 C72.00140144 375.35759907 84.07386319 375.36789726 96.14633274 375.37128067 C96.91893922 375.37150024 97.6915457 375.3717198 98.4875645 375.37194602 C99.64921538 375.37227344 99.64921538 375.37227344 100.83433396 375.37260747 C102.40357371 375.37305093 103.97281347 375.3734975 105.54205322 375.37394714 C106.32044687 375.37416857 107.09884052 375.37439 107.90082186 375.37461814 C120.5028897 375.37856294 133.10489959 375.39600687 145.70694507 375.41930667 C158.6536792 375.44304989 171.6003843 375.45548392 184.54714054 375.45664859 C191.81278096 375.45756384 199.07834595 375.46327798 206.34396553 375.4814682 C213.1819796 375.4985277 220.01984858 375.50009959 226.85787773 375.49132919 C229.3640163 375.49055929 231.87016258 375.49489539 234.37628174 375.50478745 C237.80557396 375.51752652 241.23436134 375.51161895 244.66365051 375.50120544 C246.14063859 375.51329005 246.14063859 375.51329005 247.64746481 375.52561879 C255.87276719 375.46746584 263.37733781 373.77163068 270.90606689 370.44621277 C273.90606689 369.13371277 273.90606689 369.13371277 276.90606689 369.13371277 C277.23606689 368.14371277 277.56606689 367.15371277 277.90606689 366.13371277 C279.47247314 364.95011902 279.47247314 364.95011902 281.46856689 363.69621277 C290.47065442 357.1875092 295.51788122 346.84078759 297.4475708 336.12733459 C298.10548679 331.40946254 297.88640332 326.75341085 297.71466064 322.0052948 C297.65195308 319.94374068 297.59065862 317.88214323 297.53057861 315.82051086 C297.49833191 314.73364109 297.46608521 313.64677132 297.43286133 312.52696609 C297.24707765 305.48330596 297.16987508 298.43752059 297.08404541 291.39204597 C297.00318504 285.23197573 296.87743855 279.07971796 296.64776611 272.92326355 C295.02946921 228.07100345 295.02946921 228.07100345 306.27548218 215.28058434 C311.55645127 209.7990206 317.48693841 205.20669134 323.90606689 201.13371277 C324.89606689 201.46371277 325.88606689 201.79371277 326.90606689 202.13371277 C327.02344348 219.53770669 327.11131863 236.94157515 327.16512775 254.34587574 C327.19078866 262.42901746 327.22570377 270.51191168 327.28326416 278.59489441 C327.33347412 285.64911465 327.36544564 292.70315546 327.37650937 299.75754946 C327.38296541 303.48465805 327.39787707 307.21125382 327.43471718 310.93819618 C327.66521867 335.2101251 325.87689308 356.16847227 310.84356689 376.19621277 C310.43211426 376.74519226 310.02066162 377.29417175 309.59674072 377.85978699 C307.02070075 381.13614454 304.54244515 383.14582599 300.90606689 385.13371277 C300.10169189 385.93808777 299.29731689 386.74246277 298.46856689 387.57121277 C293.8021926 392.23758706 288.36973839 395.06344113 282.40606689 397.69621277 C281.78731689 397.98689636 281.16856689 398.27757996 280.53106689 398.57707214 C265.47741386 405.25265043 249.75781674 404.56350889 233.64605713 404.52189636 C230.99515718 404.52596662 228.34428235 404.53120363 225.69338989 404.53782654 C219.26864031 404.55109715 212.84399646 404.54831626 206.41924291 404.53958862 C201.19370733 404.5327866 195.96820118 404.53190617 190.74266243 404.53516006 C189.62295347 404.53584961 189.62295347 404.53584961 188.48062413 404.53655309 C186.9637331 404.53751236 185.44684209 404.538485 183.92995108 404.53947087 C169.73952134 404.54800505 155.54914995 404.53822138 141.35872979 404.52206977 C129.20626675 404.50866561 117.05388971 404.5109993 104.90142822 404.52482605 C90.75685894 404.54091204 76.61234064 404.54718416 62.46776348 404.53798926 C60.95706086 404.5370337 59.44635823 404.53609059 57.93565559 404.53516006 C57.1925408 404.53469724 56.449426 404.53423441 55.68379257 404.53375756 C50.46942886 404.53117692 45.25509773 404.53551853 40.04073906 404.54259872 C33.67924708 404.55104746 27.31786603 404.54866306 20.95638662 404.53275649 C17.71620532 404.52491923 14.4762447 404.52334258 11.23605919 404.53170395 C-15.58661849 404.59451749 -36.66174074 399.92542522 -56.53924561 380.77824402 C-68.67141362 368.21940955 -77.1982265 351.09881218 -77.22536087 333.30686188 C-77.22920202 332.35744012 -77.23304316 331.40801837 -77.2370007 330.42982626 C-77.23613422 329.39492009 -77.23526774 328.36001391 -77.234375 327.29374695 C-77.23734612 326.18792094 -77.24031724 325.08209493 -77.2433784 323.94275904 C-77.25206406 320.22970994 -77.25357356 316.5166931 -77.25506592 312.80363464 C-77.25969427 310.14421944 -77.26469848 307.48480717 -77.27011108 304.82539368 C-77.28368238 297.59364424 -77.28971766 290.36190036 -77.29412174 283.1301403 C-77.29688702 278.61076617 -77.30112498 274.09139417 -77.30562592 269.57202148 C-77.31781857 257.04915756 -77.32811688 244.52629533 -77.33150101 232.0034256 C-77.33172057 231.20218125 -77.33194014 230.4009369 -77.33216636 229.57541242 C-77.33238464 228.77228804 -77.33260291 227.96916366 -77.33282781 227.14170218 C-77.33327127 225.51436456 -77.33371783 223.88702694 -77.33416748 222.25968933 C-77.33438891 221.45247966 -77.33461034 220.64526998 -77.33483848 219.81359941 C-77.3387826 206.74735731 -77.35622485 193.68117112 -77.379527 180.6149506 C-77.4032804 167.18678996 -77.41570472 153.75865731 -77.41686893 140.33047533 C-77.41778361 132.79650865 -77.42348351 125.26261476 -77.44168854 117.72866821 C-77.45714366 111.31024591 -77.46217837 104.89191887 -77.45395043 98.47348148 C-77.45006253 95.20297385 -77.45253751 91.93269641 -77.46500778 88.66220474 C-77.55425547 63.78888789 -77.55425547 63.78888789 -74.09393311 53.13371277 C-73.78348682 52.05580223 -73.47304054 50.97789169 -73.1531868 49.8673172 C-71.1693963 43.07773182 -68.39322936 37.72090394 -64.09393311 32.13371277 C-62.99951904 30.68351746 -62.99951904 30.68351746 -61.88299561 29.20402527 C-55.67236111 21.26019045 -55.67236111 21.26019045 -50.09393311 19.13371277 C-49.76393311 18.14371277 -49.43393311 17.15371277 -49.09393311 16.13371277 C-48.43393311 16.13371277 -47.77393311 16.13371277 -47.09393311 16.13371277 C-47.09393311 15.47371277 -47.09393311 14.81371277 -47.09393311 14.13371277 C-43.43637029 12.11667445 -39.76840167 10.11978011 -36.09393311 8.13371277 C-35.38108154 7.74312683 -34.66822998 7.35254089 -33.93377686 6.95011902 C-23.03915286 1.20079999 -12.12505799 -0.01822212 0 0 Z " fill="#1D478E" transform="translate(149.09393310546875,25.866287231445313)"/>
<path d="M0 0 C0.73798828 -0.01998047 1.47597656 -0.03996094 2.23632812 -0.06054688 C7.47353991 -0.05589158 10.41133801 1.01037789 14.5625 4.4375 C16.50390625 6.40234375 16.50390625 6.40234375 18.125 8.375 C21.2352948 12.0689042 24.42273343 15.62568761 28.1171875 18.75390625 C31.10115176 22.22982138 31.32527901 27.00146755 31.5625 31.4375 C30.16312854 40.21048263 25.00806742 45.18520612 18.5078125 50.75 C16.06835763 52.86615362 13.81655947 55.12564413 11.5625 57.4375 C10.39718599 58.60551776 9.23042182 59.77208984 8.0625 60.9375 C7.5159375 61.4840625 6.969375 62.030625 6.40625 62.59375 C-57.4375 126.4375 -57.4375 126.4375 -59.66333008 128.57104492 C-61.92802296 130.91107477 -64.01633715 133.27390739 -66.10229492 135.76879883 C-97.62030197 173.43341263 -97.62030197 173.43341263 -115.45703125 175.17578125 C-125.47524796 175.72146209 -135.66767475 174.68731997 -145.4375 172.4375 C-147.22115341 170.65384659 -146.56596636 168.26132995 -146.57644653 165.88673401 C-146.5744223 165.11071335 -146.57239807 164.33469269 -146.5703125 163.53515625 C-146.57126923 162.74225693 -146.57222595 161.9493576 -146.57321167 161.13243103 C-146.57389351 159.4519747 -146.57203896 157.77151575 -146.56787109 156.09106445 C-146.5625299 153.51442555 -146.56781228 150.93796152 -146.57421875 148.36132812 C-146.57355783 146.73177045 -146.57227638 145.10221288 -146.5703125 143.47265625 C-146.57233673 142.69865982 -146.57436096 141.92466339 -146.57644653 141.12721252 C-146.55245583 135.66741166 -146.55245583 135.66741166 -145.4375 133.4375 C-144.7775 133.4375 -144.1175 133.4375 -143.4375 133.4375 C-143.1075 132.4475 -142.7775 131.4575 -142.4375 130.4375 C-141.7775 130.4375 -141.1175 130.4375 -140.4375 130.4375 C-140.4375 129.7775 -140.4375 129.1175 -140.4375 128.4375 C-138.96045788 127.18522516 -137.47922601 125.93583478 -135.9453125 124.75390625 C-134.16987056 123.31985909 -134.16987056 123.31985909 -132.4375 120.4375 C-131.7775 120.4375 -131.1175 120.4375 -130.4375 120.4375 C-130.4375 119.7775 -130.4375 119.1175 -130.4375 118.4375 C-129.7775 118.4375 -129.1175 118.4375 -128.4375 118.4375 C-128.4375 117.7775 -128.4375 117.1175 -128.4375 116.4375 C-126.8152546 114.72756566 -125.14336575 113.06402316 -123.4375 111.4375 C-122.880625 110.839375 -122.32375 110.24125 -121.75 109.625 C-120.4375 108.4375 -120.4375 108.4375 -118.4375 108.4375 C-118.4375 107.7775 -118.4375 107.1175 -118.4375 106.4375 C-116.93359375 104.921875 -116.93359375 104.921875 -114.875 103.1875 C-114.1428125 102.56230469 -113.410625 101.93710937 -112.65625 101.29296875 C-111.30701604 100.1646481 -109.95386559 99.04096077 -108.59375 97.92578125 C-104.67495711 94.67496442 -101.35383022 91.17890196 -98.046875 87.30859375 C-94.62619487 83.33163797 -90.81599774 79.88346213 -86.875 76.4375 C-83.68556715 73.6329078 -81.04777091 70.79356259 -78.4375 67.4375 C-73.89695946 63.4375 -73.89695946 63.4375 -71.4375 63.4375 C-71.23125 62.90125 -71.025 62.365 -70.8125 61.8125 C-68.90499574 58.51771991 -66.38930616 55.84386372 -63.4375 53.4375 C-62.7775 53.4375 -62.1175 53.4375 -61.4375 53.4375 C-61.23125 52.90125 -61.025 52.365 -60.8125 51.8125 C-58.90499574 48.51771991 -56.38930616 45.84386372 -53.4375 43.4375 C-52.7775 43.4375 -52.1175 43.4375 -51.4375 43.4375 C-51.21191406 42.87289062 -50.98632812 42.30828125 -50.75390625 41.7265625 C-49.06443568 38.78878875 -46.93923617 37.01884997 -44.375 34.8125 C-40.92098875 32.00657909 -40.92098875 32.00657909 -38.4375 28.4375 C-37.7775 28.4375 -37.1175 28.4375 -36.4375 28.4375 C-35.9425 26.9525 -35.9425 26.9525 -35.4375 25.4375 C-34.7775 25.4375 -34.1175 25.4375 -33.4375 25.4375 C-33.4375 24.7775 -33.4375 24.1175 -33.4375 23.4375 C-31.0625 20.8125 -31.0625 20.8125 -28.4375 18.4375 C-27.7775 18.4375 -27.1175 18.4375 -26.4375 18.4375 C-25.9425 16.9525 -25.9425 16.9525 -25.4375 15.4375 C-24.7775 15.4375 -24.1175 15.4375 -23.4375 15.4375 C-23.4375 14.7775 -23.4375 14.1175 -23.4375 13.4375 C-21.0625 10.8125 -21.0625 10.8125 -18.4375 8.4375 C-17.7775 8.4375 -17.1175 8.4375 -16.4375 8.4375 C-16.1075 7.4475 -15.7775 6.4575 -15.4375 5.4375 C-14.7775 5.4375 -14.1175 5.4375 -13.4375 5.4375 C-13.4375 4.7775 -13.4375 4.1175 -13.4375 3.4375 C-9.15946312 -0.0272863 -5.25345812 -0.05020681 0 0 Z " fill="#44ACBC" transform="translate(444.4375,156.5625)"/>
<path d="M0 0 C1.31878505 -0.00391162 1.31878505 -0.00391162 2.66421223 -0.00790226 C3.64113624 -0.00567154 4.61806025 -0.00344082 5.62458801 -0.0011425 C6.65379207 -0.00270249 7.68299612 -0.00426248 8.74338818 -0.00586975 C12.22048528 -0.00988459 15.69753935 -0.00668823 19.17463684 -0.00355339 C21.65588914 -0.00490722 24.13714123 -0.00668704 26.61839294 -0.00886345 C32.67523858 -0.01296389 38.73206708 -0.01234445 44.78891206 -0.00945081 C49.70926659 -0.00719697 54.62961764 -0.00688417 59.54997253 -0.00797462 C60.24893935 -0.00812786 60.94790617 -0.00828109 61.66805381 -0.00843897 C63.08777054 -0.00875868 64.50748728 -0.00908289 65.92720401 -0.00941156 C79.25544707 -0.0122665 92.58368326 -0.00897911 105.9119252 -0.00361119 C117.36050179 0.00085686 128.80906824 0.00008093 140.25764465 -0.00452995 C153.53657988 -0.00987547 166.81550908 -0.01199181 180.09444523 -0.00891769 C181.5090847 -0.00859912 182.92372417 -0.00828475 184.33836365 -0.00797462 C185.03448373 -0.00782035 185.73060382 -0.00766607 186.44781846 -0.00750712 C191.36509068 -0.0066419 196.2823591 -0.00810496 201.19963074 -0.01045418 C207.81182287 -0.01354355 214.42399874 -0.01135974 221.03619003 -0.00555992 C223.47073205 -0.00423158 225.90527566 -0.00462768 228.33981705 -0.00682259 C231.64781636 -0.0095312 234.95575292 -0.00615651 238.26374817 -0.0011425 C239.24067218 -0.00337322 240.21759619 -0.00560395 241.22412395 -0.00790226 C242.10331399 -0.00529452 242.98250402 -0.00268677 243.88833618 0 C244.65293057 0.00016235 245.41752497 0.0003247 246.20528889 0.00049198 C247.94416809 0.12584114 247.94416809 0.12584114 248.94416809 1.12584114 C249.04388595 3.04042396 249.07497398 4.95866431 249.07698059 6.87584114 C249.07826965 8.04115364 249.07955872 9.20646614 249.08088684 10.40709114 C249.07701965 11.63427864 249.07315247 12.86146614 249.06916809 14.12584114 C249.07303528 15.35302864 249.07690247 16.58021614 249.08088684 17.84459114 C249.07895325 19.59255989 249.07895325 19.59255989 249.07698059 21.37584114 C249.07585266 22.45349739 249.07472473 23.53115364 249.07356262 24.64146614 C248.94416809 27.12584114 248.94416809 27.12584114 247.94416809 28.12584114 C246.59507421 28.22309217 245.24093071 28.25139507 243.88833618 28.25168228 C242.56955113 28.2555939 242.56955113 28.2555939 241.22412395 28.25958455 C240.24719995 28.25735382 239.27027594 28.2551231 238.26374817 28.25282478 C237.23454412 28.25438477 236.20534006 28.25594476 235.14494801 28.25755203 C231.6678509 28.26156687 228.19079683 28.25837052 224.71369934 28.25523567 C222.23244704 28.2565895 219.75119495 28.25836932 217.26994324 28.26054573 C211.21309761 28.26464617 205.1562691 28.26402674 199.09942412 28.26113309 C194.1790696 28.25887926 189.25871854 28.25856645 184.33836365 28.25965691 C183.63939683 28.25981014 182.94043001 28.25996337 182.22028238 28.26012125 C180.80056564 28.26044096 179.3808489 28.26076517 177.96113217 28.26109384 C164.63288911 28.26394878 151.30465292 28.26066139 137.97641098 28.25529347 C126.52783439 28.25082542 115.07926794 28.25160135 103.63069153 28.25621223 C90.3517563 28.26155775 77.0728271 28.26367409 63.79389095 28.26059997 C62.37925148 28.2602814 60.96461201 28.25996703 59.54997253 28.25965691 C58.85385245 28.25950263 58.15773236 28.25934836 57.44051772 28.2591894 C52.5232455 28.25832418 47.60597708 28.25978724 42.68870544 28.26213646 C36.07651331 28.26522583 29.46433744 28.26304202 22.85214615 28.2572422 C20.41760414 28.25591386 17.98306052 28.25630996 15.54851913 28.25850487 C12.24051982 28.26121348 8.93258326 28.2578388 5.62458801 28.25282478 C4.647664 28.25505551 3.67073999 28.25728623 2.66421223 28.25958455 C1.78502219 28.2569768 0.90583216 28.25436905 0 28.25168228 C-0.76459439 28.25151993 -1.52918879 28.25135758 -2.31695271 28.2511903 C-4.05583191 28.12584114 -4.05583191 28.12584114 -5.05583191 27.12584114 C-5.15554976 25.21125832 -5.18663779 23.29301797 -5.18864441 21.37584114 C-5.18993347 20.21052864 -5.19122253 19.04521614 -5.19255066 17.84459114 C-5.18868347 16.61740364 -5.18481628 15.39021614 -5.18083191 14.12584114 C-5.1846991 12.89865364 -5.18856628 11.67146614 -5.19255066 10.40709114 C-5.1912616 9.24177864 -5.18997253 8.07646614 -5.18864441 6.87584114 C-5.18751648 5.79818489 -5.18638855 4.72052864 -5.18522644 3.61021614 C-4.97461831 -0.43346005 -3.64318236 0.00077359 0 0 Z " fill="#44ACBD" transform="translate(152.0558319091797,100.87415885925293)"/>
<path d="M0 0 C1.31878505 -0.00391162 1.31878505 -0.00391162 2.66421223 -0.00790226 C3.64113624 -0.00567154 4.61806025 -0.00344082 5.62458801 -0.0011425 C6.65379207 -0.00270249 7.68299612 -0.00426248 8.74338818 -0.00586975 C12.22048528 -0.00988459 15.69753935 -0.00668823 19.17463684 -0.00355339 C21.65588914 -0.00490722 24.13714123 -0.00668704 26.61839294 -0.00886345 C32.67523858 -0.01296389 38.73206708 -0.01234445 44.78891206 -0.00945081 C49.70926659 -0.00719697 54.62961764 -0.00688417 59.54997253 -0.00797462 C60.24893935 -0.00812786 60.94790617 -0.00828109 61.66805381 -0.00843897 C63.08777054 -0.00875868 64.50748728 -0.00908289 65.92720401 -0.00941156 C79.25544707 -0.0122665 92.58368326 -0.00897911 105.9119252 -0.00361119 C117.36050179 0.00085686 128.80906824 0.00008093 140.25764465 -0.00452995 C153.53657988 -0.00987547 166.81550908 -0.01199181 180.09444523 -0.00891769 C181.5090847 -0.00859912 182.92372417 -0.00828475 184.33836365 -0.00797462 C185.03448373 -0.00782035 185.73060382 -0.00766607 186.44781846 -0.00750712 C191.36509068 -0.0066419 196.2823591 -0.00810496 201.19963074 -0.01045418 C207.81182287 -0.01354355 214.42399874 -0.01135974 221.03619003 -0.00555992 C223.47073205 -0.00423158 225.90527566 -0.00462768 228.33981705 -0.00682259 C231.64781636 -0.0095312 234.95575292 -0.00615651 238.26374817 -0.0011425 C239.24067218 -0.00337322 240.21759619 -0.00560395 241.22412395 -0.00790226 C242.10331399 -0.00529452 242.98250402 -0.00268677 243.88833618 0 C244.65293057 0.00016235 245.41752497 0.0003247 246.20528889 0.00049198 C247.94416809 0.12584114 247.94416809 0.12584114 248.94416809 1.12584114 C249.62181152 4.25557573 249.61172304 6.99457619 248.94416809 10.12584114 C245.2834555 15.75770667 240.10457378 19.92551093 234.94416809 24.12584114 C234.58582949 24.82089854 234.22749088 25.51595594 233.85829353 26.23207569 C231.15953028 28.90213299 229.08006727 28.60850622 225.38473117 28.64682847 C224.47588802 28.63585923 223.56704487 28.62488998 222.63066101 28.61358833 C221.66508494 28.6177116 220.69950888 28.62183486 219.70467293 28.62608308 C216.45463019 28.63504527 213.20538612 28.61531692 209.95539856 28.59581184 C207.63148399 28.59632037 205.30756923 28.5985743 202.98365784 28.60244942 C196.66154125 28.60788257 190.33971616 28.58842098 184.01765203 28.56434846 C178.08300397 28.5452587 172.14837365 28.54394083 166.21369912 28.54232004 C154.45664717 28.53844191 142.69970527 28.51596143 130.94270325 28.48253059 C119.52342774 28.4500864 108.10421034 28.42884891 96.68489075 28.42100716 C95.62952467 28.42027892 95.62952467 28.42027892 94.55283807 28.41953597 C91.72512716 28.41760743 88.89741624 28.41569531 86.0697053 28.41381987 C74.54465723 28.4058406 63.01962102 28.38856708 51.49458551 28.37018371 C47.55120436 28.36410675 43.60782263 28.35896889 39.66444016 28.35383224 C33.48065282 28.34507508 27.2969014 28.33079139 21.11313629 28.31212234 C18.83662688 28.30597975 16.56011218 28.30154081 14.28359604 28.29887962 C11.19026532 28.29492276 8.09701707 28.28482894 5.00370789 28.27301216 C4.09040329 28.27319652 3.17709869 28.27338089 2.2361182 28.27357084 C-3.94159594 28.24007711 -3.94159594 28.24007711 -5.05583191 27.12584114 C-5.15554976 25.21125832 -5.18663779 23.29301797 -5.18864441 21.37584114 C-5.18993347 20.21052864 -5.19122253 19.04521614 -5.19255066 17.84459114 C-5.18868347 16.61740364 -5.18481628 15.39021614 -5.18083191 14.12584114 C-5.1846991 12.89865364 -5.18856628 11.67146614 -5.19255066 10.40709114 C-5.1912616 9.24177864 -5.18997253 8.07646614 -5.18864441 6.87584114 C-5.18751648 5.79818489 -5.18638855 4.72052864 -5.18522644 3.61021614 C-4.97461831 -0.43346005 -3.64318236 0.00077359 0 0 Z " fill="#1A438B" transform="translate(152.0558319091797,150.87415885925293)"/>
<path d="M0 0 C0.81029535 0.00291284 1.6205907 0.00582568 2.45544046 0.00882679 C3.30975733 0.00797237 4.1640742 0.00711794 5.04427946 0.00623763 C7.9294771 0.0045802 10.81461761 0.01010847 13.69980997 0.01555592 C15.75904457 0.01583776 17.81827928 0.01568012 19.87751383 0.01511341 C25.48678858 0.01482532 31.09604215 0.02072396 36.70531195 0.02768737 C42.56032401 0.03391894 48.41533649 0.03452455 54.27035135 0.03571278 C65.36614531 0.03882668 76.46192947 0.04704085 87.55771911 0.05706227 C100.18627944 0.06822159 112.81484023 0.0737334 125.44340426 0.0787577 C151.42918751 0.08922342 177.41496206 0.10682399 203.4007377 0.12908131 C203.4007377 5.89668685 200.33031876 8.17578045 196.4007377 12.12908131 C195.35499166 13.04441667 194.29412674 13.94302393 193.2132377 14.81658131 C190.37749542 16.98361246 190.37749542 16.98361246 188.4632377 19.56658131 C187.7826127 20.41220631 187.1019877 21.25783131 186.4007377 22.12908131 C186.03501594 22.63670034 185.66929418 23.14431937 185.29248995 23.66732079 C181.9143411 27.44725891 178.79458783 28.49695218 173.748357 28.79866356 C169.70992527 28.90607617 165.67862211 28.87481833 161.63950723 28.82610279 C159.81745859 28.82604737 157.99540826 28.8286226 156.17336649 28.83362538 C151.23757858 28.83960911 146.30264808 28.80848703 141.36702961 28.7703765 C136.20389059 28.73655015 131.04074652 28.73599626 125.87751383 28.73163563 C117.21387993 28.71968574 108.55056482 28.68589085 99.88706583 28.63664967 C87.65256429 28.56715931 75.41820498 28.53789042 63.18353862 28.51624912 C53.69602134 28.49797382 44.20853366 28.46851638 34.7210502 28.43767506 C33.70050625 28.43450362 32.6799623 28.43133219 31.62849277 28.42806464 C25.77563617 28.40929257 19.9228529 28.38498265 14.07005876 28.35194927 C12.29344291 28.34259932 10.5168173 28.33493637 8.74018663 28.3290363 C6.32580521 28.32063244 3.91154253 28.30605895 1.49720377 28.28971058 C0.78506601 28.2885307 0.07292826 28.28735083 -0.66078943 28.2861352 C-5.48496727 28.24337634 -5.48496727 28.24337634 -6.5992623 27.12908131 C-6.69898015 25.21449849 -6.73006818 23.29625814 -6.7320748 21.37908131 C-6.73336386 20.21376881 -6.73465292 19.04845631 -6.73598105 17.84783131 C-6.73211386 16.62064381 -6.72824667 15.39345631 -6.7242623 14.12908131 C-6.72812948 12.90189381 -6.73199667 11.67470631 -6.73598105 10.41033131 C-6.73469198 9.24501881 -6.73340292 8.07970631 -6.7320748 6.87908131 C-6.73094687 5.80142506 -6.72981894 4.72376881 -6.72865683 3.61345631 C-6.48671877 -1.03175439 -4.06677567 0.01109167 0 0 Z " fill="#4AABBC" transform="translate(153.59926229715347,200.8709186911583)"/>
<path d="M0 0 C1.75739832 0.00138269 1.75739832 0.00138269 3.55029964 0.00279331 C4.20043889 0.00193889 4.85057814 0.00108446 5.52041858 0.00020415 C7.71464604 -0.00145243 9.90879826 0.00407358 12.10301876 0.00952244 C13.66964879 0.0098043 15.23627895 0.0096466 16.8029089 0.00907993 C21.06925401 0.00879191 25.33557126 0.0146894 29.60190988 0.02165389 C34.05556076 0.02788665 38.50921221 0.02849116 42.96286678 0.0296793 C51.40246468 0.03279285 59.84204969 0.04100655 68.2816419 0.05102879 C77.88728468 0.0621892 87.49292806 0.06770019 97.09857571 0.07272422 C116.86365443 0.08318914 136.62872153 0.10078904 156.39379025 0.12304783 C154.97653429 6.76387943 149.31083958 11.71033545 144.14379025 15.87304783 C141.43426634 18.08993103 139.56233076 20.39488395 137.39379025 23.12304783 C133.77728976 26.51307099 131.62755135 27.62274954 126.67412472 27.61079502 C124.96211628 27.62121075 124.96211628 27.62121075 123.21552181 27.63183689 C121.97271954 27.61902683 120.72991726 27.60621677 119.44945431 27.59301853 C118.13359844 27.59520893 116.81774258 27.59739933 115.46201229 27.59965611 C111.86091355 27.6050675 108.26033079 27.58568855 104.65932465 27.56155515 C100.89217963 27.5402472 97.12503624 27.54085361 93.35784054 27.53886509 C87.03623738 27.53242186 80.71482804 27.51118637 74.39330196 27.47973728 C66.2696232 27.43937682 58.14607044 27.42203923 50.02230358 27.4124279 C43.04472966 27.4041393 36.0671826 27.38690212 29.08963203 27.36739039 C26.84247032 27.36131707 24.59530759 27.35617799 22.34814358 27.35103893 C18.17223353 27.34065502 13.99641836 27.32101516 9.82054806 27.30004978 C8.56964886 27.29736088 7.31874966 27.29467197 6.02994442 27.29190159 C4.89988476 27.28474628 3.7698251 27.27759098 2.6055212 27.27021885 C1.61740067 27.26594537 0.62928013 27.26167189 -0.38878345 27.25726891 C-2.60620975 27.12304783 -2.60620975 27.12304783 -3.60620975 26.12304783 C-3.70580596 24.2814576 -3.73701386 22.43607816 -3.73902225 20.59179783 C-3.74031132 19.47160252 -3.74160038 18.3514072 -3.7429285 17.19726658 C-3.73906132 16.01777439 -3.73519413 14.8382822 -3.73120975 13.62304783 C-3.73507694 12.44355564 -3.73894413 11.26406345 -3.7429285 10.04882908 C-3.74163944 8.92863377 -3.74035038 7.80843845 -3.73902225 6.65429783 C-3.73789433 5.61853611 -3.7367664 4.58277439 -3.73560429 3.51562595 C-3.55417181 0.16083683 -3.37374098 0.15928553 0 0 Z " fill="#1A448C" transform="translate(150.60620975494385,251.87695217132568)"/>
<path d="M0 0 C1.40342982 0.00138269 1.40342982 0.00138269 2.83521175 0.00279331 C3.90518398 0.00141865 4.97515621 0.00004398 6.07755184 -0.00137234 C7.26150036 0.00222294 8.44544888 0.00581821 9.66527462 0.00952244 C11.52354885 0.0093034 11.52354885 0.0093034 13.41936398 0.00907993 C16.82624443 0.00965891 20.23306494 0.01468824 23.63993478 0.02165389 C27.19671437 0.0278879 30.75349468 0.02849126 34.31027889 0.0296793 C41.04991192 0.03279248 47.78952881 0.04100568 54.52915472 0.05102879 C62.20013009 0.06219035 69.87110621 0.06770048 77.54208767 0.07272422 C93.32591651 0.08318831 109.10972923 0.10078748 124.8935461 0.12304783 C124.92241147 4.43553392 124.94029865 8.74799545 124.9560461 13.06054783 C124.96442501 14.29224705 124.97280392 15.52394627 124.98143673 16.7929697 C124.98465939 17.96279392 124.98788204 19.13261814 124.99120235 20.33789158 C124.99643917 21.42191257 125.00167599 22.50593357 125.0070715 23.62280369 C124.8935461 26.12304783 124.8935461 26.12304783 123.8935461 27.12304783 C122.26363056 27.22127876 120.62944624 27.24936732 118.99657345 27.25003147 C117.93646053 27.2528513 116.87634762 27.25567112 115.78411007 27.25857639 C114.02456997 27.25554005 114.02456997 27.25554005 112.2294836 27.25244236 C111.00199398 27.25419468 109.77450436 27.255947 108.50981808 27.25775242 C105.13386332 27.26141066 101.75796949 27.26053747 98.38201809 27.25737333 C94.85640026 27.25484939 91.33078512 27.25718736 87.8051672 27.2587595 C81.88345018 27.2605811 75.96174561 27.25817515 70.04003048 27.25341892 C63.18437801 27.24797632 56.32875527 27.24973898 49.47310352 27.25524533 C43.59710529 27.25977674 37.72111603 27.26042687 31.84511662 27.25780666 C28.33120518 27.25624404 24.81730773 27.25604971 21.30339718 27.25934315 C17.38812247 27.26275615 13.47288133 27.25803166 9.5576086 27.25244236 C8.38458187 27.25446659 7.21155514 27.25649082 6.00298214 27.25857639 C4.41281277 27.25434666 4.41281277 27.25434666 2.79051876 27.25003147 C1.86357204 27.24965445 0.93662533 27.24927742 -0.01841068 27.24888897 C-2.1064539 27.12304783 -2.1064539 27.12304783 -3.1064539 26.12304783 C-3.2060501 24.2814576 -3.237258 22.43607816 -3.2392664 20.59179783 C-3.24055546 19.47160252 -3.24184452 18.3514072 -3.24317265 17.19726658 C-3.23930546 16.01777439 -3.23543827 14.8382822 -3.2314539 13.62304783 C-3.23532108 12.44355564 -3.23918827 11.26406345 -3.24317265 10.04882908 C-3.24188358 8.92863377 -3.24059452 7.80843845 -3.2392664 6.65429783 C-3.23813847 5.61853611 -3.23701054 4.58277439 -3.23584843 3.51562595 C-3.07152698 0.47722937 -3.02789592 0.17687357 0 0 Z " fill="#43ABBC" transform="translate(150.10645389556885,301.8769521713257)"/>
<path d="M0 0 C1.31878505 -0.00391162 1.31878505 -0.00391162 2.66421223 -0.00790226 C3.64113624 -0.00567154 4.61806025 -0.00344082 5.62458801 -0.0011425 C6.65379207 -0.00270249 7.68299612 -0.00426248 8.74338818 -0.00586975 C12.22048528 -0.00988459 15.69753935 -0.00668823 19.17463684 -0.00355339 C21.65588914 -0.00490722 24.13714123 -0.00668704 26.61839294 -0.00886345 C32.67523858 -0.01296389 38.73206708 -0.01234445 44.78891206 -0.00945081 C49.70926659 -0.00719697 54.62961764 -0.00688417 59.54997253 -0.00797462 C60.24893935 -0.00812786 60.94790617 -0.00828109 61.66805381 -0.00843897 C63.08777054 -0.00875868 64.50748728 -0.00908289 65.92720401 -0.00941156 C79.25544707 -0.0122665 92.58368326 -0.00897911 105.9119252 -0.00361119 C117.36050179 0.00085686 128.80906824 0.00008093 140.25764465 -0.00452995 C153.53657988 -0.00987547 166.81550908 -0.01199181 180.09444523 -0.00891769 C181.5090847 -0.00859912 182.92372417 -0.00828475 184.33836365 -0.00797462 C185.03448373 -0.00782035 185.73060382 -0.00766607 186.44781846 -0.00750712 C191.36509068 -0.0066419 196.2823591 -0.00810496 201.19963074 -0.01045418 C207.81182287 -0.01354355 214.42399874 -0.01135974 221.03619003 -0.00555992 C223.47073205 -0.00423158 225.90527566 -0.00462768 228.33981705 -0.00682259 C231.64781636 -0.0095312 234.95575292 -0.00615651 238.26374817 -0.0011425 C239.24067218 -0.00337322 240.21759619 -0.00560395 241.22412395 -0.00790226 C242.10331399 -0.00529452 242.98250402 -0.00268677 243.88833618 0 C244.65293057 0.00016235 245.41752497 0.0003247 246.20528889 0.00049198 C247.94416809 0.12584114 247.94416809 0.12584114 248.94416809 1.12584114 C249.04388595 3.04042396 249.07497398 4.95866431 249.07698059 6.87584114 C249.07826965 8.04115364 249.07955872 9.20646614 249.08088684 10.40709114 C249.07701965 11.63427864 249.07315247 12.86146614 249.06916809 14.12584114 C249.07303528 15.35302864 249.07690247 16.58021614 249.08088684 17.84459114 C249.07895325 19.59255989 249.07895325 19.59255989 249.07698059 21.37584114 C249.07585266 22.45349739 249.07472473 23.53115364 249.07356262 24.64146614 C248.94416809 27.12584114 248.94416809 27.12584114 247.94416809 28.12584114 C246.59507421 28.22309217 245.24093071 28.25139507 243.88833618 28.25168228 C242.56955113 28.2555939 242.56955113 28.2555939 241.22412395 28.25958455 C240.24719995 28.25735382 239.27027594 28.2551231 238.26374817 28.25282478 C237.23454412 28.25438477 236.20534006 28.25594476 235.14494801 28.25755203 C231.6678509 28.26156687 228.19079683 28.25837052 224.71369934 28.25523567 C222.23244704 28.2565895 219.75119495 28.25836932 217.26994324 28.26054573 C211.21309761 28.26464617 205.1562691 28.26402674 199.09942412 28.26113309 C194.1790696 28.25887926 189.25871854 28.25856645 184.33836365 28.25965691 C183.63939683 28.25981014 182.94043001 28.25996337 182.22028238 28.26012125 C180.80056564 28.26044096 179.3808489 28.26076517 177.96113217 28.26109384 C164.63288911 28.26394878 151.30465292 28.26066139 137.97641098 28.25529347 C126.52783439 28.25082542 115.07926794 28.25160135 103.63069153 28.25621223 C90.3517563 28.26155775 77.0728271 28.26367409 63.79389095 28.26059997 C62.37925148 28.2602814 60.96461201 28.25996703 59.54997253 28.25965691 C58.85385245 28.25950263 58.15773236 28.25934836 57.44051772 28.2591894 C52.5232455 28.25832418 47.60597708 28.25978724 42.68870544 28.26213646 C36.07651331 28.26522583 29.46433744 28.26304202 22.85214615 28.2572422 C20.41760414 28.25591386 17.98306052 28.25630996 15.54851913 28.25850487 C12.24051982 28.26121348 8.93258326 28.2578388 5.62458801 28.25282478 C4.647664 28.25505551 3.67073999 28.25728623 2.66421223 28.25958455 C1.78502219 28.2569768 0.90583216 28.25436905 0 28.25168228 C-0.76459439 28.25151993 -1.52918879 28.25135758 -2.31695271 28.2511903 C-4.05583191 28.12584114 -4.05583191 28.12584114 -5.05583191 27.12584114 C-5.15554976 25.21125832 -5.18663779 23.29301797 -5.18864441 21.37584114 C-5.18993347 20.21052864 -5.19122253 19.04521614 -5.19255066 17.84459114 C-5.18868347 16.61740364 -5.18481628 15.39021614 -5.18083191 14.12584114 C-5.1846991 12.89865364 -5.18856628 11.67146614 -5.19255066 10.40709114 C-5.1912616 9.24177864 -5.18997253 8.07646614 -5.18864441 6.87584114 C-5.18751648 5.79818489 -5.18638855 4.72052864 -5.18522644 3.61021614 C-4.97461831 -0.43346005 -3.64318236 0.00077359 0 0 Z M-3.05583191 2.12584114 C-3.05583191 10.04584114 -3.05583191 17.96584114 -3.05583191 26.12584114 C79.44416809 26.12584114 161.94416809 26.12584114 246.94416809 26.12584114 C246.94416809 18.20584114 246.94416809 10.28584114 246.94416809 2.12584114 C164.44416809 2.12584114 81.94416809 2.12584114 -3.05583191 2.12584114 Z " fill="#71B0B8" transform="translate(152.0558319091797,100.87415885925293)"/>
<path d="M0 0 C1.31878505 -0.00391162 1.31878505 -0.00391162 2.66421223 -0.00790226 C3.64113624 -0.00567154 4.61806025 -0.00344082 5.62458801 -0.0011425 C6.65379207 -0.00270249 7.68299612 -0.00426248 8.74338818 -0.00586975 C12.22048528 -0.00988459 15.69753935 -0.00668823 19.17463684 -0.00355339 C21.65588914 -0.00490722 24.13714123 -0.00668704 26.61839294 -0.00886345 C32.67523858 -0.01296389 38.73206708 -0.01234445 44.78891206 -0.00945081 C49.70926659 -0.00719697 54.62961764 -0.00688417 59.54997253 -0.00797462 C60.24893935 -0.00812786 60.94790617 -0.00828109 61.66805381 -0.00843897 C63.08777054 -0.00875868 64.50748728 -0.00908289 65.92720401 -0.00941156 C79.25544707 -0.0122665 92.58368326 -0.00897911 105.9119252 -0.00361119 C117.36050179 0.00085686 128.80906824 0.00008093 140.25764465 -0.00452995 C153.53657988 -0.00987547 166.81550908 -0.01199181 180.09444523 -0.00891769 C181.5090847 -0.00859912 182.92372417 -0.00828475 184.33836365 -0.00797462 C185.03448373 -0.00782035 185.73060382 -0.00766607 186.44781846 -0.00750712 C191.36509068 -0.0066419 196.2823591 -0.00810496 201.19963074 -0.01045418 C207.81182287 -0.01354355 214.42399874 -0.01135974 221.03619003 -0.00555992 C223.47073205 -0.00423158 225.90527566 -0.00462768 228.33981705 -0.00682259 C231.64781636 -0.0095312 234.95575292 -0.00615651 238.26374817 -0.0011425 C239.24067218 -0.00337322 240.21759619 -0.00560395 241.22412395 -0.00790226 C242.10331399 -0.00529452 242.98250402 -0.00268677 243.88833618 0 C244.65293057 0.00016235 245.41752497 0.0003247 246.20528889 0.00049198 C247.94416809 0.12584114 247.94416809 0.12584114 248.94416809 1.12584114 C249.50722389 4.94657691 249.80473418 8.6394088 247.82698059 12.05552864 C246.44416809 13.68834114 246.44416809 13.68834114 243.94416809 16.12584114 C242.95416809 15.63084114 242.95416809 15.63084114 241.94416809 15.12584114 C242.27416809 13.14584114 242.60416809 11.16584114 242.94416809 9.12584114 C244.26416809 9.12584114 245.58416809 9.12584114 246.94416809 9.12584114 C246.94416809 6.81584114 246.94416809 4.50584114 246.94416809 2.12584114 C164.44416809 2.12584114 81.94416809 2.12584114 -3.05583191 2.12584114 C-3.05583191 10.04584114 -3.05583191 17.96584114 -3.05583191 26.12584114 C113.26916809 26.62084114 113.26916809 26.62084114 231.94416809 27.12584114 C231.94416809 27.45584114 231.94416809 27.78584114 231.94416809 28.12584114 C201.89618675 28.14863113 171.8482057 28.16633912 141.80021763 28.17690647 C138.25648561 28.17815725 134.7127536 28.17945156 131.16902161 28.18077278 C130.46349883 28.18103509 129.75797605 28.1812974 129.0310738 28.18156766 C117.59246141 28.18592443 106.15385402 28.19381202 94.7152446 28.20299394 C82.98684138 28.21233028 71.25844079 28.21789671 59.53003401 28.21992964 C52.93872965 28.22123719 46.34743666 28.22432585 39.75613594 28.2315712 C33.56009185 28.23832728 27.36406386 28.24045895 21.16801643 28.23894882 C18.886667 28.23922534 16.60531706 28.24123288 14.32397079 28.24504662 C11.22392541 28.24997744 8.1239419 28.2488417 5.02389526 28.24609566 C4.10854431 28.2490085 3.19319335 28.25192134 2.25010449 28.25492245 C-3.9417107 28.23996235 -3.9417107 28.23996235 -5.05583191 27.12584114 C-5.15554976 25.21125832 -5.18663779 23.29301797 -5.18864441 21.37584114 C-5.18993347 20.21052864 -5.19122253 19.04521614 -5.19255066 17.84459114 C-5.18868347 16.61740364 -5.18481628 15.39021614 -5.18083191 14.12584114 C-5.1846991 12.89865364 -5.18856628 11.67146614 -5.19255066 10.40709114 C-5.1912616 9.24177864 -5.18997253 8.07646614 -5.18864441 6.87584114 C-5.18751648 5.79818489 -5.18638855 4.72052864 -5.18522644 3.61021614 C-4.97461831 -0.43346005 -3.64318236 0.00077359 0 0 Z " fill="#7980AA" transform="translate(152.0558319091797,150.87415885925293)"/>
<path d="M0 0 C1.40342982 0.00138269 1.40342982 0.00138269 2.83521175 0.00279331 C3.90518398 0.00141865 4.97515621 0.00004398 6.07755184 -0.00137234 C7.26150036 0.00222294 8.44544888 0.00581821 9.66527462 0.00952244 C11.52354885 0.0093034 11.52354885 0.0093034 13.41936398 0.00907993 C16.82624443 0.00965891 20.23306494 0.01468824 23.63993478 0.02165389 C27.19671437 0.0278879 30.75349468 0.02849126 34.31027889 0.0296793 C41.04991192 0.03279248 47.78952881 0.04100568 54.52915472 0.05102879 C62.20013009 0.06219035 69.87110621 0.06770048 77.54208767 0.07272422 C93.32591651 0.08318831 109.10972923 0.10078748 124.8935461 0.12304783 C124.92241147 4.43553392 124.94029865 8.74799545 124.9560461 13.06054783 C124.96442501 14.29224705 124.97280392 15.52394627 124.98143673 16.7929697 C124.98465939 17.96279392 124.98788204 19.13261814 124.99120235 20.33789158 C124.99643917 21.42191257 125.00167599 22.50593357 125.0070715 23.62280369 C124.8935461 26.12304783 124.8935461 26.12304783 123.8935461 27.12304783 C122.26363056 27.22127876 120.62944624 27.24936732 118.99657345 27.25003147 C117.93646053 27.2528513 116.87634762 27.25567112 115.78411007 27.25857639 C114.02456997 27.25554005 114.02456997 27.25554005 112.2294836 27.25244236 C111.00199398 27.25419468 109.77450436 27.255947 108.50981808 27.25775242 C105.13386332 27.26141066 101.75796949 27.26053747 98.38201809 27.25737333 C94.85640026 27.25484939 91.33078512 27.25718736 87.8051672 27.2587595 C81.88345018 27.2605811 75.96174561 27.25817515 70.04003048 27.25341892 C63.18437801 27.24797632 56.32875527 27.24973898 49.47310352 27.25524533 C43.59710529 27.25977674 37.72111603 27.26042687 31.84511662 27.25780666 C28.33120518 27.25624404 24.81730773 27.25604971 21.30339718 27.25934315 C17.38812247 27.26275615 13.47288133 27.25803166 9.5576086 27.25244236 C8.38458187 27.25446659 7.21155514 27.25649082 6.00298214 27.25857639 C4.41281277 27.25434666 4.41281277 27.25434666 2.79051876 27.25003147 C1.86357204 27.24965445 0.93662533 27.24927742 -0.01841068 27.24888897 C-2.1064539 27.12304783 -2.1064539 27.12304783 -3.1064539 26.12304783 C-3.2060501 24.2814576 -3.237258 22.43607816 -3.2392664 20.59179783 C-3.24055546 19.47160252 -3.24184452 18.3514072 -3.24317265 17.19726658 C-3.23930546 16.01777439 -3.23543827 14.8382822 -3.2314539 13.62304783 C-3.23532108 12.44355564 -3.23918827 11.26406345 -3.24317265 10.04882908 C-3.24188358 8.92863377 -3.24059452 7.80843845 -3.2392664 6.65429783 C-3.23813847 5.61853611 -3.23701054 4.58277439 -3.23584843 3.51562595 C-3.07152698 0.47722937 -3.02789592 0.17687357 0 0 Z M-1.1064539 2.12304783 C-1.19359221 3.8307714 -1.21345397 5.54203432 -1.20411015 7.25195408 C-1.20088749 8.28642673 -1.19766483 9.32089939 -1.19434452 10.3867197 C-1.18596561 11.47533298 -1.17758671 12.56394627 -1.1689539 13.68554783 C-1.16444218 14.7780283 -1.15993046 15.87050877 -1.15528202 16.9960947 C-1.14345216 19.70513278 -1.12696933 22.41406382 -1.1064539 25.12304783 C15.04386531 25.14637692 31.19417907 25.16402705 47.34451103 25.17486 C54.84287675 25.18002294 62.34123202 25.18706559 69.83959103 25.19848728 C76.37285114 25.20843419 82.90610369 25.21490127 89.43937117 25.21713632 C92.90076417 25.21844342 96.36213553 25.22152919 99.82352161 25.22877789 C103.68142137 25.2367919 107.53929967 25.23703896 111.39720821 25.23657322 C112.55310452 25.2401685 113.70900082 25.24376377 114.89992428 25.24746799 C115.94465405 25.24609333 116.98938381 25.24471867 118.06577206 25.24330235 C118.9792689 25.24422414 119.89276575 25.24514593 120.83394432 25.24609566 C122.88566965 25.35215041 122.88566965 25.35215041 123.8935461 24.12304783 C123.98068442 22.41532425 124.00054618 20.70406134 123.99120235 18.99414158 C123.9879797 17.95966892 123.98475704 16.92519627 123.98143673 15.85937595 C123.97305782 14.77076267 123.96467892 13.68214939 123.9560461 12.56054783 C123.95153439 11.46806736 123.94702267 10.37558689 123.94237423 9.25000095 C123.93054437 6.54096288 123.91406154 3.83203184 123.8935461 1.12304783 C107.7432269 1.09971874 91.59291314 1.0820686 75.44258118 1.07123566 C67.94421546 1.06607272 60.44586019 1.05903007 52.94750118 1.04760838 C46.41424107 1.03766146 39.88098852 1.03119438 33.34772104 1.02895933 C29.88632804 1.02765224 26.42495668 1.02456647 22.96357059 1.01731777 C19.10567084 1.00930376 15.24779254 1.0090567 11.389884 1.00952244 C10.23398769 1.00592716 9.07809139 1.00233189 7.88716793 0.99862766 C6.84243816 1.00000233 5.7977084 1.00137699 4.72132015 1.00279331 C3.80782331 1.00187152 2.89432646 1.00094973 1.95314789 1 C-0.09857744 0.89394525 -0.09857744 0.89394525 -1.1064539 2.12304783 Z " fill="#74AEB7" transform="translate(150.10645389556885,301.8769521713257)"/>
<path d="M0 0 C1.75739832 0.00138269 1.75739832 0.00138269 3.55029964 0.00279331 C4.20043889 0.00193889 4.85057814 0.00108446 5.52041858 0.00020415 C7.71464604 -0.00145243 9.90879826 0.00407358 12.10301876 0.00952244 C13.66964879 0.0098043 15.23627895 0.0096466 16.8029089 0.00907993 C21.06925401 0.00879191 25.33557126 0.0146894 29.60190988 0.02165389 C34.05556076 0.02788665 38.50921221 0.02849116 42.96286678 0.0296793 C51.40246468 0.03279285 59.84204969 0.04100655 68.2816419 0.05102879 C77.88728468 0.0621892 87.49292806 0.06770019 97.09857571 0.07272422 C116.86365443 0.08318914 136.62872153 0.10078904 156.39379025 0.12304783 C156.06379025 1.44304783 155.73379025 2.76304783 155.39379025 4.12304783 C155.06379025 3.13304783 154.73379025 2.14304783 154.39379025 1.12304783 C103.24379025 1.12304783 52.09379025 1.12304783 -0.60620975 1.12304783 C-0.93620975 9.04304783 -1.26620975 16.96304783 -1.60620975 25.12304783 C42.61379025 25.45304783 86.83379025 25.78304783 132.39379025 26.12304783 C132.39379025 26.45304783 132.39379025 26.78304783 132.39379025 27.12304783 C114.80924907 27.14637621 97.2247127 27.1640267 79.64015961 27.17486 C71.4759186 27.18002309 63.3116872 27.18706603 55.14745235 27.19848728 C48.0340774 27.20843373 40.9207094 27.21490116 33.80732769 27.21713632 C30.03853301 27.2184435 26.26975821 27.22152977 22.50096989 27.22877789 C18.30060209 27.23679099 14.10026917 27.23703899 9.89989376 27.23657322 C8.01176212 27.24196613 8.01176212 27.24196613 6.08548641 27.24746799 C4.37955822 27.245406 4.37955822 27.245406 2.63916683 27.24330235 C1.6445522 27.24422414 0.64993757 27.24514593 -0.37481689 27.24609566 C-2.60620975 27.12304783 -2.60620975 27.12304783 -3.60620975 26.12304783 C-3.70580596 24.2814576 -3.73701386 22.43607816 -3.73902225 20.59179783 C-3.74031132 19.47160252 -3.74160038 18.3514072 -3.7429285 17.19726658 C-3.73906132 16.01777439 -3.73519413 14.8382822 -3.73120975 13.62304783 C-3.73507694 12.44355564 -3.73894413 11.26406345 -3.7429285 10.04882908 C-3.74163944 8.92863377 -3.74035038 7.80843845 -3.73902225 6.65429783 C-3.73789433 5.61853611 -3.7367664 4.58277439 -3.73560429 3.51562595 C-3.55417181 0.16083683 -3.37374098 0.15928553 0 0 Z " fill="#5C709C" transform="translate(150.60620975494385,251.87695217132568)"/>
<path d="M0 0 C1.10894599 -0.00226556 2.21789198 -0.00453111 3.3604424 -0.00686532 C7.07195025 -0.01318943 10.78342144 -0.01237697 14.49493408 -0.0115509 C17.15788916 -0.01454339 19.82084138 -0.01791792 22.48379517 -0.02172852 C28.96428026 -0.03002239 35.44475625 -0.03278279 41.92524621 -0.03334089 C47.19529536 -0.03381668 52.46534151 -0.03587457 57.73538971 -0.03904152 C72.69011962 -0.04784488 87.64484237 -0.05246143 102.59957489 -0.05171105 C103.40518991 -0.05167109 104.21080493 -0.05163113 105.04083252 -0.05158997 C105.84743581 -0.05154909 106.6540391 -0.0515082 107.48508492 -0.05146609 C120.55253756 -0.05105977 133.61996137 -0.06062644 146.68740568 -0.07472833 C160.11787983 -0.08910715 173.54833994 -0.09599768 186.97882199 -0.09513456 C194.51379442 -0.09480309 202.04873661 -0.09752792 209.58370209 -0.10831261 C215.99992391 -0.11743747 222.41610181 -0.11957661 228.83232734 -0.11280318 C232.10255437 -0.10954789 235.37268012 -0.11054155 238.64290237 -0.11815643 C242.19674261 -0.12589416 245.75036358 -0.12121957 249.30419922 -0.11352539 C250.32572106 -0.11866895 251.3472429 -0.12381252 252.39971995 -0.12911195 C269.72580539 -0.04654874 269.72580539 -0.04654874 273.90606689 4.13371277 C271.91466129 4.51504576 269.91327612 4.84696859 267.90606689 5.13371277 C267.57606689 4.80371277 267.24606689 4.47371277 266.90606689 4.13371277 C264.57788726 3.76610546 262.2442284 3.43129696 259.90606689 3.13371277 C259.90606689 2.47371277 259.90606689 1.81371277 259.90606689 1.13371277 C225.68810186 1.23829902 191.47015781 1.34807135 157.25223218 1.46482971 C153.21537578 1.47859981 149.17851923 1.49232682 145.1416626 1.50602722 C143.93612993 1.51011968 143.93612993 1.51011968 142.70624308 1.51429481 C129.68146019 1.55840761 116.65666862 1.59902822 103.63187053 1.63836538 C90.27396614 1.67878604 76.9160779 1.72294301 63.55819732 1.77059132 C55.31118571 1.79989042 47.06417533 1.82625151 38.8171427 1.84889174 C33.16704696 1.86468148 27.51697099 1.88409009 21.86689719 1.90638118 C18.60382098 1.9191469 15.34076259 1.92974673 12.07766914 1.93713188 C8.54478219 1.94537765 5.01197054 1.95965009 1.47911072 1.97549438 C-0.07777913 1.97696155 -0.07777913 1.97696155 -1.6661213 1.97845834 C-2.60912786 1.98393279 -3.55213441 1.98940723 -4.52371693 1.99504757 C-5.74774541 1.99903463 -5.74774541 1.99903463 -6.99650174 2.00310224 C-9.28768507 2.0557109 -9.28768507 2.0557109 -12.09393311 3.13371277 C-14.10268753 2.85800138 -16.10571997 2.53135539 -18.09393311 2.13371277 C-18.09393311 1.80371277 -18.09393311 1.47371277 -18.09393311 1.13371277 C-12.03819728 0.07291719 -6.1389581 -0.00922592 0 0 Z " fill="#7D9CBC" transform="translate(149.09393310546875,25.866287231445313)"/>
<path d="M0 0 C0.66 0.33 1.32 0.66 2 1 C1.67 89.77 1.34 178.54 1 270 C0.67 270 0.34 270 0 270 C-0.15038583 236.32569896 -0.29541582 202.65137971 -0.4332476 168.97702502 C-0.44951889 165.00283097 -0.46583459 161.02863711 -0.48217773 157.05444336 C-0.48543066 156.263242 -0.48868358 155.47204063 -0.49203508 154.65686347 C-0.54483457 141.84033941 -0.60123311 129.02383358 -0.6589582 116.20733086 C-0.71809503 103.05962696 -0.77337236 89.91191093 -0.82505554 76.76417559 C-0.85707716 68.64919573 -0.8921209 60.53424041 -0.93101191 52.41929051 C-0.96049487 46.20018084 -0.98461198 39.98106098 -1.00670624 33.76192093 C-1.01662424 31.20811022 -1.02829689 28.65430566 -1.04183006 26.10051155 C-1.06001025 22.62090603 -1.07194819 19.14133373 -1.08229065 15.66169739 C-1.09249633 14.13689175 -1.09249633 14.13689175 -1.10290819 12.58128196 C-1.10440054 11.64822689 -1.10589289 10.71517182 -1.10743046 9.75384235 C-1.11084794 8.95073386 -1.11426542 8.14762536 -1.11778647 7.32018024 C-0.98992449 4.80153063 -0.55043786 2.45811194 0 0 Z " fill="#325380" transform="translate(99,88)"/>
<path d="M0 0 C33.41953129 -0.04576287 66.83905479 -0.0810118 100.25861044 -0.10213066 C104.20276183 -0.10463212 108.14691316 -0.10722076 112.09106445 -0.10986328 C112.87628459 -0.1103879 113.66150472 -0.11091252 114.4705194 -0.11145304 C127.19004196 -0.12015918 139.90954648 -0.13593031 152.62905832 -0.15430559 C165.67733453 -0.17299882 178.72560127 -0.1841155 191.77389032 -0.18817699 C199.82745532 -0.19092325 207.88096931 -0.19960176 215.93451861 -0.21583293 C222.10664948 -0.22763975 228.27874134 -0.2289128 234.45088196 -0.22621536 C236.9853376 -0.22676691 239.51979511 -0.23076262 242.05423927 -0.23841095 C245.50764149 -0.24832383 248.9608233 -0.24598214 252.41423035 -0.24050903 C253.42298554 -0.24633472 254.43174074 -0.2521604 255.47106427 -0.25816262 C263.85252849 -0.22212307 263.85252849 -0.22212307 268 2 C268 2.33 268 2.66 268 3 C265.69 3 263.38 3 261 3 C261 2.34 261 1.68 261 1 C174.87 1 88.74 1 0 1 C0 0.67 0 0.34 0 0 Z " fill="#1F3D72" transform="translate(144,52)"/>
<path d="M0 0 C-2 2 -2 2 -3.94758475 2.24198496 C-4.75183241 2.23818776 -5.55608007 2.23439056 -6.38469887 2.23047829 C-7.31178079 2.23097699 -8.23886272 2.23147569 -9.19403803 2.2319895 C-10.73195146 2.21741456 -10.73195146 2.21741456 -12.30093384 2.20254517 C-13.38478406 2.20017046 -14.46863429 2.19779576 -15.58532846 2.1953491 C-19.24139562 2.18487688 -22.89722618 2.1599913 -26.55322266 2.13525391 C-29.1643186 2.12483484 -31.7754182 2.11529831 -34.38652039 2.10658264 C-40.02051769 2.08637648 -45.65444062 2.05880158 -51.28837967 2.02626419 C-59.43416796 1.97923084 -67.57997534 1.94324471 -75.72583012 1.90998094 C-88.9409604 1.85571547 -102.15603198 1.79247824 -115.37109375 1.72363281 C-128.21059299 1.65676306 -141.05010137 1.59409763 -153.88964844 1.53710938 C-154.68067682 1.53359693 -155.4717052 1.53008449 -156.28670414 1.52646561 C-160.25494145 1.50887126 -164.22317912 1.49135981 -168.19141698 1.47388959 C-201.1276779 1.32877991 -234.0638535 1.16912426 -267 1 C-267 0.67 -267 0.34 -267 0 C-233.70788151 -0.15038732 -200.4157446 -0.29541733 -167.12357183 -0.4332476 C-163.19444161 -0.44951888 -159.26531157 -0.46583458 -155.33618164 -0.48217773 C-154.55395212 -0.48543066 -153.7717226 -0.48868358 -152.96578916 -0.49203508 C-140.29476179 -0.54483391 -127.62375286 -0.60123258 -114.95274708 -0.6589582 C-101.95420499 -0.71809599 -88.95565063 -0.77337317 -75.95707673 -0.82505554 C-67.93422504 -0.85707643 -59.91139819 -0.89211994 -51.88857683 -0.93101191 C-45.73997044 -0.960496 -39.59135374 -0.9846126 -33.4427166 -1.00670624 C-30.91793184 -1.01662385 -28.39315328 -1.02829635 -25.86838531 -1.04183006 C-22.42819133 -1.06001163 -18.98803095 -1.07194871 -15.54780579 -1.08229065 C-14.04050942 -1.09249633 -14.04050942 -1.09249633 -12.50276262 -1.10290819 C-11.58015773 -1.10440054 -10.65755285 -1.10589289 -9.70699024 -1.10743046 C-8.91299503 -1.11084794 -8.11899982 -1.11426542 -7.30094415 -1.11778647 C-4.78970488 -0.98923489 -2.45109898 -0.54813883 0 0 Z " fill="#3E5780" transform="translate(410,402)"/>
<path d="M0 0 C0.66 0.33 1.32 0.66 2 1 C3.43816729 1.09773464 4.88075312 1.13382803 6.32222939 1.1386652 C7.23537773 1.14413964 8.14852607 1.14961409 9.08934557 1.15525442 C10.0990574 1.15623253 11.10876922 1.15721064 12.14907837 1.15821838 C13.21659438 1.16315636 14.2841104 1.16809434 15.38397539 1.17318195 C18.98466034 1.18862076 22.58532737 1.1969348 26.18603516 1.20532227 C28.75772765 1.21489578 31.32941856 1.22490554 33.90110779 1.23532104 C39.44992957 1.25710198 44.99875375 1.27524054 50.54759598 1.29092598 C58.57035277 1.3136099 66.59308304 1.34175476 74.61581735 1.37124526 C87.63123633 1.41893931 100.64666613 1.46219857 113.66210938 1.50268555 C126.30762577 1.54203125 138.95313252 1.58345525 151.59863281 1.62768555 C152.37771321 1.63040982 153.15679361 1.63313409 153.95948251 1.63594092 C157.86778395 1.64962024 161.77608526 1.66334055 165.68438649 1.67708123 C198.12290447 1.79107449 230.56144245 1.89787753 263 2 C263 2.33 263 2.66 263 3 C175.22 3.33 87.44 3.66 -3 4 C-2.01 2.68 -1.02 1.36 0 0 Z " fill="#6C91B5" transform="translate(142,51)"/>
<path d="M0 0 C2.48089185 2.09105168 3.86458592 3.28746522 4.48101807 6.53106689 C4.47213562 7.48148865 4.46325317 8.4319104 4.45410156 9.41113281 C4.45379944 10.49195129 4.45349731 11.57276978 4.45318604 12.68634033 C4.43254089 13.84687927 4.41189575 15.00741821 4.390625 16.203125 C4.38496521 17.39605164 4.37930542 18.58897827 4.37347412 19.8180542 C4.35107926 23.62911056 4.30087429 27.43922767 4.25 31.25 C4.22993915 33.83331976 4.21168766 36.41665425 4.1953125 39 C4.15120411 45.33365394 4.08425978 51.66675987 4 58 C3.01 58 2.02 58 1 58 C0.505 56.515 0.505 56.515 0 55 C0.66 55 1.32 55 2 55 C1.67 54.34 1.34 53.68 1 53 C0.88097188 51.30536742 0.82285313 49.60628878 0.79467773 47.90771484 C0.77473251 46.84676605 0.75478729 45.78581726 0.73423767 44.69271851 C0.71752518 43.54373077 0.70081268 42.39474304 0.68359375 41.2109375 C0.66281265 40.03737701 0.64203156 38.86381653 0.62062073 37.6546936 C0.55508017 33.89485696 0.49621924 30.13494878 0.4375 26.375 C0.39431908 23.83072168 0.35070493 21.28645067 0.30664062 18.7421875 C0.19939418 12.49486793 0.0976362 6.24747674 0 0 Z " fill="#476FA0" transform="translate(472,88)"/>
<path d="M0 0 C0.99 0 1.98 0 3 0 C3 0.99 3 1.98 3 3 C3.66 3.33 4.32 3.66 5 4 C4.01 4.33 3.02 4.66 2 5 C1.67 37.67 1.34 70.34 1 104 C0.67 104 0.34 104 0 104 C0 69.68 0 35.36 0 0 Z " fill="#183F81" transform="translate(449,252)"/>
<path d="M0 0 C0.99 0.33 1.98 0.66 3 1 C0.39780813 4.31194457 -2.08338021 7.46844244 -6.256073 8.6257019 C-8.82002491 8.8066679 -11.30291093 8.78872524 -13.87109375 8.68359375 C-14.793423 8.67368912 -15.71575226 8.66378448 -16.66603088 8.65357971 C-19.59152048 8.61461371 -22.51315867 8.52683146 -25.4375 8.4375 C-27.42898199 8.40236287 -29.42052322 8.37042807 -31.41210938 8.34179688 C-36.27620751 8.26491058 -41.13745249 8.14425632 -46 8 C-45.67 7.01 -45.34 6.02 -45 5 C-43.32043213 4.97812622 -43.32043213 4.97812622 -41.60693359 4.95581055 C-37.43571726 4.89765114 -33.26503081 4.82041977 -29.09423828 4.73754883 C-27.29224271 4.70438227 -25.49014533 4.67632475 -23.68798828 4.65356445 C-21.09103177 4.61986568 -18.49500134 4.56754351 -15.8984375 4.51171875 C-14.69808365 4.50213387 -14.69808365 4.50213387 -13.47348022 4.49235535 C-8.44011838 4.36131954 -3.77078881 3.77078881 0 0 Z " fill="#6FB6BF" transform="translate(345,321)"/>
<path d="M0 0 C0.99 0.66 1.98 1.32 3 2 C-2.94 7.94 -8.88 13.88 -15 20 C-15.99 19.67 -16.98 19.34 -18 19 C-17.34 17.68 -16.68 16.36 -16 15 C-15.67 15.33 -15.34 15.66 -15 16 C-14.731875 15.360625 -14.46375 14.72125 -14.1875 14.0625 C-13 12 -13 12 -10 11 C-9.40929986 9.05396726 -9.40929986 9.05396726 -9 7 C-8.34 6.34 -7.68 5.68 -7 5 C-5.98758315 3.67607028 -4.98560611 2.34400833 -4 1 C-4 1.66 -4 2.32 -4 3 C-3.01 3 -2.02 3 -1 3 C-0.67 2.01 -0.34 1.02 0 0 Z " fill="#5CABB7" transform="translate(441,224)"/>
<path d="M0 0 C2.85033934 4.275509 3.52752592 8.35797436 2.53125 13.34765625 C0.868922 18.75925665 -1.17688061 23.35318036 -6.25 26.3125 C-7.11625 26.6528125 -7.11625 26.6528125 -8 27 C-8.33 25.35 -8.66 23.7 -9 22 C-7.68 22.33 -6.36 22.66 -5 23 C-5 22.34 -5 21.68 -5 21 C-4.34 21 -3.68 21 -3 21 C-3.33 19.68 -3.66 18.36 -4 17 C-3.01 17 -2.02 17 -1 17 C-0.67 11.39 -0.34 5.78 0 0 Z " fill="#6FB0B8" transform="translate(473,177)"/>
<path d="M0 0 C0.99 0.33 1.98 0.66 3 1 C-3.66666667 7.66666667 -10.33333333 14.33333333 -17 21 C-17.33 20.01 -17.66 19.02 -18 18 C-17.34 18 -16.68 18 -16 18 C-16 16.35 -16 14.7 -16 13 C-15.21625 12.9175 -14.4325 12.835 -13.625 12.75 C-10.85250896 12.27193661 -10.85250896 12.27193661 -9.6875 9.9375 C-9.3471875 8.9784375 -9.3471875 8.9784375 -9 8 C-8.34 8 -7.68 8 -7 8 C-7 7.34 -7 6.68 -7 6 C-6.01 6 -5.02 6 -4 6 C-3.34 4.68 -2.68 3.36 -2 2 C-1.34 2 -0.68 2 0 2 C0 1.34 0 0.68 0 0 Z " fill="#6EB4BE" transform="translate(392,274)"/>
<path d="M0 0 C5.4951855 -0.04986905 10.99023588 -0.08593921 16.4855957 -0.10986328 C18.35052794 -0.1198491 20.21544481 -0.13344246 22.08032227 -0.15087891 C43.98980294 -0.35042949 43.98980294 -0.35042949 51 2 C51.66 2.66 52.32 3.32 53 4 C51.0085944 4.38133299 49.00720923 4.71325582 47 5 C46.505 4.505 46.505 4.505 46 4 C43.67182036 3.63239269 41.3381615 3.29758419 39 3 C39 2.34 39 1.68 39 1 C26.13 1 13.26 1 0 1 C0 0.67 0 0.34 0 0 Z " fill="#738DAD" transform="translate(370,26)"/>
<path d="M0 0 C0.33 1.32 0.66 2.64 1 4 C0.34 4 -0.32 4 -1 4 C-1 4.66 -1 5.32 -1 6 C-1.66 6 -2.32 6 -3 6 C-3 6.66 -3 7.32 -3 8 C-4.1875 9.3125 -4.1875 9.3125 -6 11 C-6.804375 11.825 -7.60875 12.65 -8.4375 13.5 C-14.075 19 -14.075 19 -17 19 C-15.40907948 14.86360664 -12.39525082 11.76786752 -9 9 C-8.34 9 -7.68 9 -7 9 C-6.773125 8.443125 -6.54625 7.88625 -6.3125 7.3125 C-4.64103234 4.36753316 -2.44723648 2.31843456 0 0 Z " fill="#68B0BD" transform="translate(400,191)"/>
<path d="M0 0 C0.66 0.33 1.32 0.66 2 1 C0.60846256 5.42761914 -1.52071486 7.9556255 -5 11 C-5.66 11 -6.32 11 -7 11 C-7.28875 11.61875 -7.5775 12.2375 -7.875 12.875 C-9 15 -9 15 -11 17 C-12.32 17 -13.64 17 -15 17 C-15 16.34 -15 15.68 -15 15 C-14.34 15 -13.68 15 -13 15 C-12.67 14.01 -12.34 13.02 -12 12 C-11.34 12 -10.68 12 -10 12 C-10 11.34 -10 10.68 -10 10 C-8.52295788 8.74772516 -7.04172601 7.49833478 -5.5078125 6.31640625 C-3.73237056 4.88235909 -3.73237056 4.88235909 -2 2 C-1.34 2 -0.68 2 0 2 C0 1.34 0 0.68 0 0 Z " fill="#6FB5BD" transform="translate(314,275)"/>
<path d="M0 0 C0.99 0 1.98 0 3 0 C2.67 7.92 2.34 15.84 2 24 C4.97 24 7.94 24 11 24 C11 24.33 11 24.66 11 25 C7.37 25 3.74 25 0 25 C0 16.75 0 8.5 0 0 Z " fill="#586AA9" transform="translate(147,253)"/>
<path d="M0 0 C-1 2 -1 2 -3 4 C-3.845625 4.165 -4.69125 4.33 -5.5625 4.5 C-6.366875 4.665 -7.17125 4.83 -8 5 C-8.33 5.66 -8.66 6.32 -9 7 C-11.72265625 7.6328125 -11.72265625 7.6328125 -15.0625 8.125 C-16.16722656 8.29257812 -17.27195312 8.46015625 -18.41015625 8.6328125 C-19.69212891 8.81457031 -19.69212891 8.81457031 -21 9 C-18.65330039 4.30660079 -10.22109911 2.45791216 -5.5 0.6875 C-3 0 -3 0 0 0 Z " fill="#4A6292" transform="translate(130,28)"/>
<path d="M0 0 C1 3 1 3 -0.25 5.625 C-2 8 -2 8 -5 9 C-6.42857119 10.40105576 -6.42857119 10.40105576 -7.6875 12.0625 C-8.450625 13.031875 -9.21375 14.00125 -10 15 C-11.32 14.67 -12.64 14.34 -14 14 C-9.33333333 9.33333333 -4.66666667 4.66666667 0 0 Z " fill="#75B8C2" transform="translate(345,245)"/>
<path d="M0 0 C0.66 0.33 1.32 0.66 2 1 C1.5003731 8.49440349 -0.43764478 14.95650263 -3 22 C-3.33 22 -3.66 22 -4 22 C-4.1799928 16.78020872 -3.97094808 12.92737019 -2 8 C-1.34 8 -0.68 8 0 8 C0 5.36 0 2.72 0 0 Z " fill="#4B678D" transform="translate(473,363)"/>
<path d="M0 0 C2.31 0 4.62 0 7 0 C7.76681614 7.66816143 7.76681614 7.66816143 5.88671875 10.93359375 C4.5 12.5625 4.5 12.5625 2 15 C1.34 14.67 0.68 14.34 0 14 C0.33 12.02 0.66 10.04 1 8 C2.32 8 3.64 8 5 8 C5 5.69 5 3.38 5 1 C3.35 1 1.7 1 0 1 C0 0.67 0 0.34 0 0 Z " fill="#5D6FA5" transform="translate(394,152)"/>
<path d="M0 0 C0.99 0.33 1.98 0.66 3 1 C2.34 2.65 1.68 4.3 1 6 C0.34 6 -0.32 6 -1 6 C-1 7.32 -1 8.64 -1 10 C-1.66 10 -2.32 10 -3 10 C-3.33 11.98 -3.66 13.96 -4 16 C-4.66 16 -5.32 16 -6 16 C-3.10933941 4.29384966 -3.10933941 4.29384966 0 0 Z " fill="#496493" transform="translate(81,65)"/>
<path d="M0 0 C2.70942393 -0.10861833 5.414439 -0.18758577 8.125 -0.25 C8.88554687 -0.28351563 9.64609375 -0.31703125 10.4296875 -0.3515625 C15.7822761 -0.44384851 18.75632254 0.43740657 23 4 C24.375 6.25 24.375 6.25 25 8 C23.35 7.34 21.7 6.68 20 6 C20 5.34 20 4.68 20 4 C18.68 3.67 17.36 3.34 16 3 C16 2.34 16 1.68 16 1 C15.01257813 1.09539062 14.02515625 1.19078125 13.0078125 1.2890625 C11.72648437 1.39992187 10.44515625 1.51078125 9.125 1.625 C7.21074219 1.79902344 7.21074219 1.79902344 5.2578125 1.9765625 C4.18273437 1.98429688 3.10765625 1.99203125 2 2 C1.34 1.34 0.68 0.68 0 0 Z " fill="#75B2BC" transform="translate(436,157)"/>
<path d="M0 0 C1.32 0 2.64 0 4 0 C2.52278578 3.45201639 0.56205999 5.64961936 -2.125 8.25 C-2.84945313 8.95640625 -3.57390625 9.6628125 -4.3203125 10.390625 C-4.87460937 10.92171875 -5.42890625 11.4528125 -6 12 C-7.125 8.25 -7.125 8.25 -6 6 C-5.01 6 -4.02 6 -3 6 C-2.67 5.01 -2.34 4.02 -2 3 C-1.01 3 -0.02 3 1 3 C0.67 2.01 0.34 1.02 0 0 Z " fill="#6DB2BD" transform="translate(355,309)"/>
<path d="M0 0 C0 4.07300169 -1.58452534 5.77936711 -4 9 C-6.25 10.875 -6.25 10.875 -8 12 C-8.66 11.34 -9.32 10.68 -10 10 C-9.67 9.34 -9.34 8.68 -9 8 C-8.34 8 -7.68 8 -7 8 C-6.67 7.01 -6.34 6.02 -6 5 C-5.34 5 -4.68 5 -4 5 C-4 4.34 -4 3.68 -4 3 C-2 1.375 -2 1.375 0 0 Z " fill="#67B4BF" transform="translate(415,177)"/>
<path d="M0 0 C0.33 0 0.66 0 1 0 C1 8.58 1 17.16 1 26 C1.99 26.33 2.98 26.66 4 27 C3.67 27.99 3.34 28.98 3 30 C2.01 30 1.02 30 0 30 C0 20.1 0 10.2 0 0 Z " fill="#183E7F" transform="translate(449,103)"/>
<path d="M0 0 C0.66 0.33 1.32 0.66 2 1 C1.06558465 2.27310312 0.12732889 3.543388 -0.8125 4.8125 C-1.59560547 5.87404297 -1.59560547 5.87404297 -2.39453125 6.95703125 C-3.84563386 8.80356815 -5.20845906 10.48108486 -7 12 C-9.1875 11.6875 -9.1875 11.6875 -11 11 C-10.01 10.67 -9.02 10.34 -8 10 C-7.5978125 9.1646875 -7.5978125 9.1646875 -7.1875 8.3125 C-5.42097496 4.87242492 -2.78863174 2.66738688 0 0 Z " fill="#73B4C0" transform="translate(381,210)"/>
<path d="M0 0 C5.55541009 1.30204924 10.97675173 3.27907385 16 6 C16 6.66 16 7.32 16 8 C10.3856009 6.43551329 5.13189662 4.83604813 0 2 C0 1.34 0 0.68 0 0 Z " fill="#485F8B" transform="translate(109,418)"/>
<path d="M0 0 C0.99 0.33 1.98 0.66 3 1 C1.55069329 4.59584747 -0.22752078 6.18832656 -3.4375 8.3125 C-4.21996094 8.84488281 -5.00242187 9.37726563 -5.80859375 9.92578125 C-8 11 -8 11 -11 10 C-7.25 7 -7.25 7 -5 7 C-4.67 6.01 -4.34 5.02 -4 4 C-2.35 3.67 -0.7 3.34 1 3 C0.67 2.01 0.34 1.02 0 0 Z " fill="#516996" transform="translate(447,409)"/>
<path d="M0 0 C0.33 0.66 0.66 1.32 1 2 C-1.66666667 4.66666667 -4.33333333 7.33333333 -7 10 C-7 7.03 -7 4.06 -7 1 C-4.53721199 -0.231394 -2.7204945 -0.07159196 0 0 Z " fill="#4D679F" transform="translate(115,66)"/>
<path d="M0 0 C0.33 0.66 0.66 1.32 1 2 C-0.328125 4.53125 -0.328125 4.53125 -2.25 7.5 C-2.87390625 8.4796875 -3.4978125 9.459375 -4.140625 10.46875 C-6 13 -6 13 -9 15 C-8.25 11.625 -8.25 11.625 -7 8 C-4.9375 6.875 -4.9375 6.875 -3 6 C-2.34444881 3.47266765 -2.34444881 3.47266765 -2 1 C-1.34 0.67 -0.68 0.34 0 0 Z " fill="#435A7F" transform="translate(468,386)"/>
<path d="M0 0 C0.35659503 3.20935531 0.29619066 4.58988985 -1.625 7.25 C-4.44059663 9.32465015 -6.55230934 9.68657358 -10 10 C-9.06409496 8.8944811 -8.12620142 7.79064547 -7.1875 6.6875 C-6.66542969 6.07261719 -6.14335937 5.45773438 -5.60546875 4.82421875 C-1.35974304 0 -1.35974304 0 0 0 Z " fill="#6CB7C1" transform="translate(356,235)"/>
<path d="M0 0 C0.33 0.45375 0.66 0.9075 1 1.375 C4.0377843 3.84319974 7.19187061 4.18843144 11 5 C11 5.66 11 6.32 11 7 C8.34501768 8.0169313 7.30844625 8.13022151 4.640625 7.00390625 C3.85171875 6.52824219 3.0628125 6.05257812 2.25 5.5625 C1.45078125 5.08941406 0.6515625 4.61632812 -0.171875 4.12890625 C-0.77515625 3.75636719 -1.3784375 3.38382813 -2 3 C-2 2.34 -2 1.68 -2 1 C-1.34 0.67 -0.68 0.34 0 0 Z " fill="#405E8E" transform="translate(461,134)"/>
<path d="M0 0 C0.33 0.66 0.66 1.32 1 2 C-0.75 5 -0.75 5 -3 8 C-4.32 8 -5.64 8 -7 8 C-7 8.66 -7 9.32 -7 10 C-7.66 10 -8.32 10 -9 10 C-8.1875 8.0625 -8.1875 8.0625 -7 6 C-6.01 5.67 -5.02 5.34 -4 5 C-4 4.34 -4 3.68 -4 3 C-2 1.375 -2 1.375 0 0 Z " fill="#7BBEC4" transform="translate(330,260)"/>
<path d="M0 0 C0.66 0.33 1.32 0.66 2 1 C1.67 2.98 1.34 4.96 1 7 C-1.64 7.33 -4.28 7.66 -7 8 C-6.02133662 6.85373678 -5.04205413 5.70800212 -4.0625 4.5625 C-3.51722656 3.92441406 -2.97195313 3.28632813 -2.41015625 2.62890625 C-1.63204305 1.73008851 -0.84063472 0.84063472 0 0 Z " fill="#4A6993" transform="translate(473,227)"/>
<path d="M0 0 C1.32 0.66 2.64 1.32 4 2 C3.01 3.98 2.02 5.96 1 8 C0.01 8 -0.98 8 -2 8 C-2.33 6.35 -2.66 4.7 -3 3 C-2.34 3 -1.68 3 -1 3 C-0.67 2.01 -0.34 1.02 0 0 Z " fill="#62B1BF" transform="translate(429,162)"/>
<path d="M0 0 C0.99 0.33 1.98 0.66 3 1 C1.6905332 2.33631236 0.37734515 3.66897925 -0.9375 5 C-1.66839844 5.7425 -2.39929688 6.485 -3.15234375 7.25 C-5 9 -5 9 -6 9 C-6.375 6.75 -6.375 6.75 -6 4 C-3.1875 1.625 -3.1875 1.625 0 0 Z " fill="#78BBC6" transform="translate(370,296)"/>
<path d="M0 0 C0.33 1.32 0.66 2.64 1 4 C0.01 4.33 -0.98 4.66 -2 5 C-3.20882096 7.00016466 -3.20882096 7.00016466 -4 9 C-4.66 9 -5.32 9 -6 9 C-5.69381595 5.32579134 -5.24228216 4.21864487 -2.4375 1.6875 C-1.633125 1.130625 -0.82875 0.57375 0 0 Z " fill="#5EAEBB" transform="translate(362,229)"/>
<path d="M0 0 C5.21979128 -0.1799928 9.07262981 0.02905192 14 2 C11 4 11 4 8.30078125 3.7578125 C7.31464844 3.54898437 6.32851563 3.34015625 5.3125 3.125 C4.31863281 2.92132812 3.32476562 2.71765625 2.30078125 2.5078125 C1.54152344 2.34023438 0.78226562 2.17265625 0 2 C0 1.34 0 0.68 0 0 Z " fill="#526992" transform="translate(409,27)"/>
<path d="M0 0 C0.33 0 0.66 0 1 0 C1.13277344 0.81984375 1.26554687 1.6396875 1.40234375 2.484375 C1.57894531 3.56203125 1.75554687 4.6396875 1.9375 5.75 C2.11152344 6.81734375 2.28554687 7.8846875 2.46484375 8.984375 C2.88704171 11.36347593 3.37202884 13.66915211 4 16 C2.68 15.34 1.36 14.68 0 14 C0 9.38 0 4.76 0 0 Z " fill="#4B648E" transform="translate(100,358)"/>
<path d="M0 0 C0.66 0 1.32 0 2 0 C2.53341184 1.57914015 3.05125763 3.16354387 3.5625 4.75 C3.85253906 5.63171875 4.14257812 6.5134375 4.44140625 7.421875 C5.01697435 10.07834316 4.89248371 11.47031106 4 14 C1.68964485 10.53446727 1.58193342 8.07353391 1 4 C0.34 3.01 -0.32 2.02 -1 1 C-0.67 0.67 -0.34 0.34 0 0 Z " fill="#4E668D" transform="translate(470,77)"/>
<path d="M0 0 C0.33 0.99 0.66 1.98 1 3 C-0.28627711 4.17260611 -1.57919783 5.3379283 -2.875 6.5 C-3.59429687 7.1496875 -4.31359375 7.799375 -5.0546875 8.46875 C-7 10 -7 10 -9 10 C-8.34 8.35 -7.68 6.7 -7 5 C-6.01 5 -5.02 5 -4 5 C-4 4.34 -4 3.68 -4 3 C-3.01 3 -2.02 3 -1 3 C-0.67 2.01 -0.34 1.02 0 0 Z " fill="#73B3C0" transform="translate(341,218)"/>
<path d="M0 0 C0.66 0.33 1.32 0.66 2 1 C2 2.32 2 3.64 2 5 C0.25 5.6875 0.25 5.6875 -2 6 C-4.25 4.5625 -4.25 4.5625 -6 3 C-4.03533587 1.93224776 -2.03144641 0.93446535 0 0 Z " fill="#24467F" transform="translate(459,130)"/>
<path d="M0 0 C0.99 0 1.98 0 3 0 C1.48328036 4.55015893 -2.16891053 6.50057264 -6 9 C-5.67 7.68 -5.34 6.36 -5 5 C-3.68 4.67 -2.36 4.34 -1 4 C-0.67 2.68 -0.34 1.36 0 0 Z " fill="#6379A2" transform="translate(298,260)"/>
<path d="M0 0 C0 0.66 0 1.32 0 2 C-4.50353262 3.75747614 -8.17639811 4.19294408 -13 4 C-13 3.67 -13 3.34 -13 3 C-11.58603098 2.49242138 -10.16868271 1.99425075 -8.75 1.5 C-7.96109375 1.2215625 -7.1721875 0.943125 -6.359375 0.65625 C-4 0 -4 0 0 0 Z " fill="#586F9B" transform="translate(422,397)"/>
<path d="M0 0 C0 1.65 0 3.3 0 5 C-2 5.66666667 -4 6.33333333 -6 7 C-6.66 6.34 -7.32 5.68 -8 5 C-7.01 5 -6.02 5 -5 5 C-4.67 4.01 -4.34 3.02 -4 2 C-1 0 -1 0 0 0 Z " fill="#516A9B" transform="translate(431,390)"/>
<path d="M0 0 C-1.875 3.875 -1.875 3.875 -3 5 C-4.66617115 5.04063832 -6.33388095 5.042721 -8 5 C-3.375 0 -3.375 0 0 0 Z " fill="#6CB2BE" transform="translate(371,223)"/>
<path d="M0 0 C0.99 0.33 1.98 0.66 3 1 C2.01 3.97 1.02 6.94 0 10 C-0.66 9.34 -1.32 8.68 -2 8 C-2 7.01 -2 6.02 -2 5 C-1.34 5 -0.68 5 0 5 C0 3.35 0 1.7 0 0 Z " fill="#48618C" transform="translate(103,77)"/>
<path d="M0 0 C3.24208567 0.35049575 4.61527704 0.56221181 6.8125 3.0625 C7.204375 3.701875 7.59625 4.34125 8 5 C5.23723823 4.47731534 2.6739124 3.89130413 0 3 C0 2.01 0 1.02 0 0 Z " fill="#4B6A95" transform="translate(111,387)"/>
<path d="M0 0 C0.66 0.33 1.32 0.66 2 1 C0.02 3.31 -1.96 5.62 -4 8 C-5.32 7.67 -6.64 7.34 -8 7 C-7.34 7 -6.68 7 -6 7 C-5.67 6.01 -5.34 5.02 -5 4 C-4.34 4 -3.68 4 -3 4 C-3 3.34 -3 2.68 -3 2 C-2.01 1.34 -1.02 0.68 0 0 Z " fill="#5A729F" transform="translate(105,38)"/>
<path d="M0 0 C0.66 0.33 1.32 0.66 2 1 C2 1.99 2 2.98 2 4 C0.46875 5.38671875 0.46875 5.38671875 -1.5 6.6875 C-2.47453125 7.34298828 -2.47453125 7.34298828 -3.46875 8.01171875 C-3.9740625 8.33785156 -4.479375 8.66398438 -5 9 C-5 8.01 -5 7.02 -5 6 C-4.34 6 -3.68 6 -3 6 C-2.690625 5.38125 -2.38125 4.7625 -2.0625 4.125 C-1.375 2.75 -0.6875 1.375 0 0 Z " fill="#72B7C1" transform="translate(348,209)"/>
<path d="M0 0 C0.99 0 1.98 0 3 0 C1.50902342 3.7952131 -0.75700849 5.61042731 -4 8 C-3.40353695 4.65980694 -2.31705841 2.49529367 0 0 Z " fill="#6FABBF" transform="translate(454,211)"/>
<path d="M0 0 C6.75 0.75 6.75 0.75 9 3 C6.03 3 3.06 3 0 3 C0 2.01 0 1.02 0 0 Z " fill="#26447C" transform="translate(428,33)"/>
<path d="M0 0 C0.99 0.495 0.99 0.495 2 1 C2 1.66 2 2.32 2 3 C2.5775 3.12375 3.155 3.2475 3.75 3.375 C6.02335767 4.00648824 7.9253529 4.88858191 10 6 C7.8125 6.8125 7.8125 6.8125 5 7 C2.1875 4.6875 2.1875 4.6875 0 2 C0 1.34 0 0.68 0 0 Z " fill="#7287AF" transform="translate(120,392)"/>
<path d="M0 0 C1.65 0.33 3.3 0.66 5 1 C3.02 3.97 3.02 3.97 1 7 C0.34 6.67 -0.32 6.34 -1 6 C-0.67 4.02 -0.34 2.04 0 0 Z " fill="#4A6898" transform="translate(395,160)"/>
<path d="M0 0 C0.66 0.33 1.32 0.66 2 1 C2 3.64 2 6.28 2 9 C1.01 8.67 0.02 8.34 -1 8 C-0.67 5.36 -0.34 2.72 0 0 Z " fill="#3D5588" transform="translate(99,88)"/>
<path d="M0 0 C-0.33 0.66 -0.66 1.32 -1 2 C-3.64860427 2.59355614 -6.29197322 2.74209269 -9 3 C-8.67 2.01 -8.34 1.02 -8 0 C-5.04215769 -1.22393475 -3.00272755 -0.96516243 0 0 Z " fill="#1F4282" transform="translate(115,37)"/>
<path d="M0 0 C2.91517292 1.07401108 4.77810176 1.77810176 7 4 C6.67 4.99 6.34 5.98 6 7 C1.125 2.25 1.125 2.25 0 0 Z " fill="#526793" transform="translate(90,403)"/>
<path d="M0 0 C0.99 0.33 1.98 0.66 3 1 C1.02 2.98 -0.96 4.96 -3 7 C-3.99 6.67 -4.98 6.34 -6 6 C-4 4 -2 2 0 0 Z " fill="#71ADB5" transform="translate(345,321)"/>
<path d="M0 0 C0.33 0.99 0.66 1.98 1 3 C-1.97 5.475 -1.97 5.475 -5 8 C-5 7.01 -5 6.02 -5 5 C-4.34 5 -3.68 5 -3 5 C-2.87625 4.360625 -2.7525 3.72125 -2.625 3.0625 C-2.41875 2.381875 -2.2125 1.70125 -2 1 C-1.34 0.67 -0.68 0.34 0 0 Z " fill="#77BBC3" transform="translate(400,266)"/>
<path d="M0 0 C1.32 0.33 2.64 0.66 4 1 C0.535 3.97 0.535 3.97 -3 7 C-3 5.68 -3 4.36 -3 3 C-2.01 3 -1.02 3 0 3 C0 2.01 0 1.02 0 0 Z " fill="#73B3BE" transform="translate(412,253)"/>
<path d="M0 0 C0.33 0.66 0.66 1.32 1 2 C3.31 2 5.62 2 8 2 C7.01 3.485 7.01 3.485 6 5 C4.02 4.34 2.04 3.68 0 3 C0 2.01 0 1.02 0 0 Z " fill="#2D538A" transform="translate(429,417)"/>
<path d="M0 0 C0.33 1.32 0.66 2.64 1 4 C1.66 4 2.32 4 3 4 C3.33 5.98 3.66 7.96 4 10 C3.34 10 2.68 10 2 10 C0.39644899 6.49223216 -0.22036864 3.85645121 0 0 Z " fill="#617198" transform="translate(74,369)"/>
<path d="M0 0 C0.99 0.33 1.98 0.66 3 1 C-1.75 5.875 -1.75 5.875 -4 7 C-4 6.01 -4 5.02 -4 4 C-3.34 4 -2.68 4 -2 4 C-1.34 2.68 -0.68 1.36 0 0 Z " fill="#77B8C1" transform="translate(406,260)"/>
<path d="M0 0 C1 2 1 2 0.375 4.0625 C-1 6 -1 6 -3.625 6.75 C-4.800625 6.87375 -4.800625 6.87375 -6 7 C-4.02 4.69 -2.04 2.38 0 0 Z " fill="#5E789F" transform="translate(455,245)"/>
<path d="M0 0 C2.5 2.3125 2.5 2.3125 5 5 C5 5.99 5 6.98 5 8 C3.0625 7.375 3.0625 7.375 1 6 C0.25 2.875 0.25 2.875 0 0 Z " fill="#3B5280" transform="translate(459,55)"/>
<path d="M0 0 C1.98 0 3.96 0 6 0 C6 0.66 6 1.32 6 2 C1.545 2.495 1.545 2.495 -3 3 C-2.01 2.67 -1.02 2.34 0 2 C0 1.34 0 0.68 0 0 Z " fill="#5B709D" transform="translate(413,426)"/>
<path d="M0 0 C0.66 0.99 1.32 1.98 2 3 C0.35 4.65 -1.3 6.3 -3 8 C-1.125 1.125 -1.125 1.125 0 0 Z " fill="#567299" transform="translate(462,393)"/>
<path d="M0 0 C0.66 0.33 1.32 0.66 2 1 C0.515 4.465 0.515 4.465 -1 8 C-1.66 8 -2.32 8 -3 8 C-1.125 1.125 -1.125 1.125 0 0 Z " fill="#23457E" transform="translate(441,378)"/>
<path d="M0 0 C0.66 0.33 1.32 0.66 2 1 C1.34 3.64 0.68 6.28 0 9 C-0.33 9 -0.66 9 -1 9 C-1.09765625 2.84765625 -1.09765625 2.84765625 -1 1 C-0.67 0.67 -0.34 0.34 0 0 Z " fill="#3F5689" transform="translate(470,376)"/>
<path d="M0 0 C0.99 0.33 1.98 0.66 3 1 C-0.465 3.97 -0.465 3.97 -4 7 C-3.67 5.68 -3.34 4.36 -3 3 C-2.01 2.67 -1.02 2.34 0 2 C0 1.34 0 0.68 0 0 Z " fill="#83C2CC" transform="translate(392,274)"/>
</svg>
